<svg width="36" height="36" viewBox="0 0 36 36" fill="none" xmlns="http://www.w3.org/2000/svg">
<path fill-rule="evenodd" clip-rule="evenodd" d="M18.0004 8.83325C16.4533 8.83325 14.9696 9.44783 13.8756 10.5418C12.7816 11.6358 12.1671 13.1195 12.1671 14.6666C12.1671 17.4605 11.5695 19.1954 11.0188 20.205C10.7423 20.712 10.4731 21.0445 10.2861 21.2419C10.1923 21.3408 10.1187 21.4064 10.0743 21.4434C10.0521 21.4619 10.0373 21.4732 10.0308 21.478L10.0285 21.4798C9.72973 21.685 9.59753 22.0603 9.70281 22.4081C9.80923 22.7595 10.1332 22.9999 10.5004 22.9999H25.5004C25.8676 22.9999 26.1916 22.7595 26.298 22.4081C26.4033 22.0603 26.2711 21.685 25.9723 21.4798L25.9699 21.478C25.9635 21.4732 25.9486 21.4619 25.9265 21.4434C25.8821 21.4064 25.8085 21.3408 25.7147 21.2419C25.5277 21.0445 25.2585 20.712 24.982 20.205C24.4313 19.1954 23.8337 17.4605 23.8337 14.6666C23.8337 13.1195 23.2191 11.6358 22.1252 10.5418C21.0312 9.44783 19.5475 8.83325 18.0004 8.83325ZM23.5188 21.0031C23.5822 21.1194 23.6459 21.2294 23.7093 21.3333H12.2915C12.3549 21.2294 12.4186 21.1194 12.482 21.0031C13.1813 19.7211 13.8337 17.706 13.8337 14.6666C13.8337 13.5615 14.2727 12.5017 15.0541 11.7203C15.8355 10.9389 16.8953 10.4999 18.0004 10.4999C19.1055 10.4999 20.1653 10.9389 20.9467 11.7203C21.7281 12.5017 22.1671 13.5615 22.1671 14.6666C22.1671 17.706 22.8195 19.7211 23.5188 21.0031Z" fill="#6C7582"/>
<path d="M17.2796 25.0818C17.0486 24.6837 16.5387 24.5482 16.1406 24.7791C15.7425 25.01 15.607 25.52 15.8379 25.9181C16.0577 26.2969 16.3731 26.6114 16.7526 26.83C17.1321 27.0486 17.5624 27.1636 18.0004 27.1636C18.4384 27.1636 18.8687 27.0486 19.2482 26.83C19.6277 26.6114 19.9431 26.2969 20.1629 25.9181C20.3938 25.52 20.2583 25.01 19.8602 24.7791C19.4621 24.5482 18.9522 24.6837 18.7212 25.0818C18.648 25.2081 18.5428 25.3129 18.4163 25.3857C18.2898 25.4586 18.1464 25.497 18.0004 25.497C17.8544 25.497 17.711 25.4586 17.5845 25.3857C17.458 25.3129 17.3528 25.2081 17.2796 25.0818Z" fill="#6C7582"/>
</svg>
