<svg width="20" height="20" viewBox="0 0 20 20" fill="none" xmlns="http://www.w3.org/2000/svg">
<path d="M10.7207 17.0811C10.9518 16.6833 11.4614 16.5484 11.8594 16.7793C12.2574 17.0103 12.393 17.5199 12.1621 17.918C11.9424 18.2968 11.6265 18.6115 11.2471 18.8301C10.8678 19.0485 10.4377 19.163 10 19.1631C9.56211 19.1631 9.13142 19.0486 8.75195 18.8301C8.37243 18.6115 8.05668 18.2968 7.83691 17.918C7.60605 17.52 7.74181 17.0103 8.13965 16.7793C8.5377 16.5484 9.04832 16.6831 9.2793 17.0811C9.35255 17.2073 9.45748 17.3129 9.58398 17.3857C9.71042 17.4585 9.85412 17.4971 10 17.4971C10.1459 17.497 10.2896 17.4586 10.416 17.3857C10.5424 17.3129 10.6475 17.2073 10.7207 17.0811ZM10 0.833008C11.547 0.833102 13.0301 1.44811 14.124 2.54199C15.2179 3.63588 15.8329 5.11904 15.833 6.66602C15.833 9.4599 16.4308 11.1955 16.9814 12.2051C17.2577 12.7116 17.5269 13.0438 17.7139 13.2412C17.8076 13.3401 17.8814 13.4064 17.9258 13.4434C17.9475 13.4614 17.9622 13.4726 17.9688 13.4775L17.9717 13.4795C18.2704 13.6847 18.4022 14.0605 18.2969 14.4082C18.1904 14.7593 17.8669 14.9998 17.5 15H2.5C2.13291 15 1.80868 14.7595 1.70215 14.4082C1.59689 14.0606 1.72878 13.6847 2.02734 13.4795L2.03027 13.4775C2.03677 13.4727 2.05147 13.4615 2.07324 13.4434C2.11759 13.4064 2.19143 13.3401 2.28516 13.2412C2.47212 13.0438 2.74124 12.7116 3.01758 12.2051C3.56827 11.1955 4.16602 9.4599 4.16602 6.66602C4.1661 5.11911 4.78121 3.63586 5.875 2.54199C6.96896 1.44803 8.4529 0.833008 10 0.833008Z" fill="#19398C"/>
</svg>
