<svg width="20" height="20" viewBox="0 0 20 20" fill="none" xmlns="http://www.w3.org/2000/svg">
<path fill-rule="evenodd" clip-rule="evenodd" d="M10.0004 0.833496C8.45329 0.833496 6.96956 1.44808 5.8756 2.54204C4.78164 3.636 4.16706 5.11973 4.16706 6.66683C4.16706 9.46071 3.5695 11.1957 3.01881 12.2053C2.74232 12.7122 2.47308 13.0447 2.28605 13.2421C2.19233 13.3411 2.11867 13.4067 2.07433 13.4436C2.05214 13.4621 2.03726 13.4735 2.03085 13.4782L2.02847 13.48C1.72973 13.6852 1.59753 14.0606 1.70281 14.4083C1.80923 14.7598 2.13317 15.0002 2.50039 15.0002H17.5004C17.8676 15.0002 18.1916 14.7598 18.298 14.4083C18.4033 14.0606 18.2711 13.6852 17.9723 13.48L17.9699 13.4782C17.9635 13.4735 17.9486 13.4621 17.9265 13.4436C17.8821 13.4067 17.8085 13.3411 17.7147 13.2421C17.5277 13.0447 17.2585 12.7122 16.982 12.2053C16.4313 11.1957 15.8337 9.46071 15.8337 6.66683C15.8337 5.11973 15.2191 3.636 14.1252 2.54204C13.0312 1.44808 11.5475 0.833496 10.0004 0.833496ZM15.5188 13.0034C15.5822 13.1196 15.6459 13.2296 15.7093 13.3335H4.29149C4.3549 13.2296 4.41855 13.1196 4.48197 13.0034C5.18128 11.7213 5.83372 9.70628 5.83372 6.66683C5.83372 5.56176 6.27271 4.50195 7.05411 3.72055C7.83551 2.93915 8.89532 2.50016 10.0004 2.50016C11.1055 2.50016 12.1653 2.93915 12.9467 3.72055C13.7281 4.50195 14.1671 5.56176 14.1671 6.66683C14.1671 9.70628 14.8195 11.7213 15.5188 13.0034Z" fill="#6C7582"/>
<path d="M9.27957 17.082C9.04864 16.6839 8.5387 16.5484 8.1406 16.7793C7.74249 17.0103 7.60697 17.5202 7.83791 17.9183C8.05767 18.2972 8.3731 18.6116 8.75262 18.8302C9.13215 19.0488 9.56243 19.1639 10.0004 19.1639C10.4384 19.1639 10.8687 19.0488 11.2482 18.8302C11.6277 18.6116 11.9431 18.2972 12.1629 17.9183C12.3938 17.5202 12.2583 17.0103 11.8602 16.7793C11.4621 16.5484 10.9522 16.6839 10.7212 17.082C10.648 17.2083 10.5428 17.3131 10.4163 17.386C10.2898 17.4589 10.1464 17.4972 10.0004 17.4972C9.85441 17.4972 9.71099 17.4589 9.58448 17.386C9.45797 17.3131 9.35283 17.2083 9.27957 17.082Z" fill="#6C7582"/>
</svg>
