<svg width="40" height="40" viewBox="0 0 40 40" fill="none" xmlns="http://www.w3.org/2000/svg">
<path fill-rule="evenodd" clip-rule="evenodd" d="M12.5003 11.6667C12.0401 11.6667 11.667 12.0398 11.667 12.5001V18.3334C11.667 18.7937 12.0401 19.1667 12.5003 19.1667H18.3337C18.7939 19.1667 19.167 18.7937 19.167 18.3334V12.5001C19.167 12.0398 18.7939 11.6667 18.3337 11.6667H12.5003ZM13.3337 17.5001V13.3334H17.5003V17.5001H13.3337Z" fill="#6C7582"/>
<path fill-rule="evenodd" clip-rule="evenodd" d="M21.667 11.6667C21.2068 11.6667 20.8337 12.0398 20.8337 12.5001V18.3334C20.8337 18.7937 21.2068 19.1667 21.667 19.1667H27.5003C27.9606 19.1667 28.3337 18.7937 28.3337 18.3334V12.5001C28.3337 12.0398 27.9606 11.6667 27.5003 11.6667H21.667ZM22.5003 17.5001V13.3334H26.667V17.5001H22.5003Z" fill="#6C7582"/>
<path fill-rule="evenodd" clip-rule="evenodd" d="M20.8337 21.6667C20.8337 21.2065 21.2068 20.8334 21.667 20.8334H27.5003C27.9606 20.8334 28.3337 21.2065 28.3337 21.6667V27.5001C28.3337 27.9603 27.9606 28.3334 27.5003 28.3334H21.667C21.2068 28.3334 20.8337 27.9603 20.8337 27.5001V21.6667ZM22.5003 22.5001V26.6667H26.667V22.5001H22.5003Z" fill="#6C7582"/>
<path fill-rule="evenodd" clip-rule="evenodd" d="M12.5003 20.8334C12.0401 20.8334 11.667 21.2065 11.667 21.6667V27.5001C11.667 27.9603 12.0401 28.3334 12.5003 28.3334H18.3337C18.7939 28.3334 19.167 27.9603 19.167 27.5001V21.6667C19.167 21.2065 18.7939 20.8334 18.3337 20.8334H12.5003ZM13.3337 26.6667V22.5001H17.5003V26.6667H13.3337Z" fill="#6C7582"/>
</svg>
