<svg width="37" height="36" viewBox="0 0 37 36" fill="none" xmlns="http://www.w3.org/2000/svg">
<path fill-rule="evenodd" clip-rule="evenodd" d="M18.9212 11.3332C15.4716 11.3332 12.6752 14.1296 12.6752 17.5791C12.6752 18.5776 12.9088 19.519 13.3237 20.354C13.4217 20.5513 13.4376 20.7794 13.368 20.9884L12.3106 24.1604L15.5147 23.1273C15.7218 23.0604 15.9469 23.0774 16.1418 23.1744C16.9779 23.5906 17.9209 23.8251 18.9212 23.8251C22.3707 23.8251 25.1671 21.0287 25.1671 17.5791C25.1671 14.1296 22.3707 11.3332 18.9212 11.3332ZM11.0085 17.5791C11.0085 13.2091 14.5511 9.6665 18.9212 9.6665C23.2912 9.6665 26.8338 13.2091 26.8338 17.5791C26.8338 21.9492 23.2912 25.4918 18.9212 25.4918C17.7807 25.4918 16.6948 25.25 15.7134 24.8143L11.2551 26.2519C10.9561 26.3483 10.6283 26.2684 10.4072 26.0451C10.1862 25.8219 10.1095 25.4933 10.2088 25.1953L11.6816 20.777C11.2487 19.7983 11.0085 18.7158 11.0085 17.5791Z" fill="#6C7582"/>
</svg>
