<svg width="20" height="20" viewBox="0 0 20 20" fill="none" xmlns="http://www.w3.org/2000/svg">
<path fill-rule="evenodd" clip-rule="evenodd" d="M2.50033 1.6665C2.04009 1.6665 1.66699 2.0396 1.66699 2.49984V8.33317C1.66699 8.79341 2.04009 9.1665 2.50033 9.1665H8.33366C8.7939 9.1665 9.16699 8.79341 9.16699 8.33317V2.49984C9.16699 2.0396 8.7939 1.6665 8.33366 1.6665H2.50033ZM3.33366 7.49984V3.33317H7.50033V7.49984H3.33366Z" fill="#6C7582"/>
<path fill-rule="evenodd" clip-rule="evenodd" d="M11.667 1.6665C11.2068 1.6665 10.8337 2.0396 10.8337 2.49984V8.33317C10.8337 8.79341 11.2068 9.1665 11.667 9.1665H17.5003C17.9606 9.1665 18.3337 8.79341 18.3337 8.33317V2.49984C18.3337 2.0396 17.9606 1.6665 17.5003 1.6665H11.667ZM12.5003 7.49984V3.33317H16.667V7.49984H12.5003Z" fill="#6C7582"/>
<path fill-rule="evenodd" clip-rule="evenodd" d="M10.8337 11.6665C10.8337 11.2063 11.2068 10.8332 11.667 10.8332H17.5003C17.9606 10.8332 18.3337 11.2063 18.3337 11.6665V17.4998C18.3337 17.9601 17.9606 18.3332 17.5003 18.3332H11.667C11.2068 18.3332 10.8337 17.9601 10.8337 17.4998V11.6665ZM12.5003 12.4998V16.6665H16.667V12.4998H12.5003Z" fill="#6C7582"/>
<path fill-rule="evenodd" clip-rule="evenodd" d="M2.50033 10.8332C2.04009 10.8332 1.66699 11.2063 1.66699 11.6665V17.4998C1.66699 17.9601 2.04009 18.3332 2.50033 18.3332H8.33366C8.7939 18.3332 9.16699 17.9601 9.16699 17.4998V11.6665C9.16699 11.2063 8.7939 10.8332 8.33366 10.8332H2.50033ZM3.33366 16.6665V12.4998H7.50033V16.6665H3.33366Z" fill="#6C7582"/>
</svg>
