<svg width="20" height="20" viewBox="0 0 20 20" fill="none" xmlns="http://www.w3.org/2000/svg">
<path d="M8.33301 10.834C8.79324 10.834 9.16699 11.2068 9.16699 11.667V17.5C9.16699 17.9602 8.79324 18.334 8.33301 18.334H2.5C2.03976 18.334 1.66699 17.9602 1.66699 17.5V11.667C1.66699 11.2068 2.03976 10.834 2.5 10.834H8.33301ZM17.5 10.834C17.9602 10.834 18.333 11.2068 18.333 11.667V17.5C18.333 17.9602 17.9602 18.334 17.5 18.334H11.667C11.2068 18.334 10.833 17.9602 10.833 17.5V11.667C10.833 11.2068 11.2068 10.834 11.667 10.834H17.5ZM8.33301 1.66699C8.79314 1.66699 9.16682 2.03991 9.16699 2.5V8.33398C9.16682 8.79407 8.79314 9.16699 8.33301 9.16699H2.5C2.03987 9.16699 1.66717 8.79407 1.66699 8.33398V2.5C1.66717 2.03991 2.03987 1.66699 2.5 1.66699H8.33301ZM17.5 1.66699C17.9601 1.66701 18.3328 2.03993 18.333 2.5V8.33398C18.3328 8.79406 17.9601 9.16697 17.5 9.16699H11.667C11.2069 9.16699 10.8332 8.79407 10.833 8.33398V2.5C10.8332 2.03991 11.2069 1.66699 11.667 1.66699H17.5Z" fill="#19398C"/>
</svg>
