<svg width="20" height="20" viewBox="0 0 20 20" fill="none" xmlns="http://www.w3.org/2000/svg">
<path fill-rule="evenodd" clip-rule="evenodd" d="M10.5119 1.00904C10.211 0.774983 9.78963 0.774983 9.48871 1.00904L1.98871 6.84237C1.78572 7.00025 1.66699 7.243 1.66699 7.50016V16.6668C1.66699 17.3299 1.93038 17.9658 2.39923 18.4346C2.86807 18.9034 3.50395 19.1668 4.16699 19.1668H15.8337C16.4967 19.1668 17.1326 18.9034 17.6014 18.4346C18.0703 17.9658 18.3337 17.3299 18.3337 16.6668V7.50016C18.3337 7.243 18.2149 7.00025 18.0119 6.84237L10.5119 1.00904ZM13.3337 17.5002H15.8337C16.0547 17.5002 16.2666 17.4124 16.4229 17.2561C16.5792 17.0998 16.667 16.8878 16.667 16.6668V7.90773L10.0003 2.72255L3.33366 7.90773V16.6668C3.33366 16.8878 3.42146 17.0998 3.57774 17.2561C3.73402 17.4124 3.94598 17.5002 4.16699 17.5002H6.66699V10.0002C6.66699 9.53992 7.04009 9.16683 7.50033 9.16683H12.5003C12.9606 9.16683 13.3337 9.53992 13.3337 10.0002V17.5002ZM8.33366 17.5002V10.8335H11.667V17.5002H8.33366Z" fill="#6C7582"/>
</svg>
