<svg width="40" height="40" viewBox="0 0 40 40" fill="none" xmlns="http://www.w3.org/2000/svg">
<path fill-rule="evenodd" clip-rule="evenodd" d="M20.5119 11.009C20.211 10.775 19.7896 10.775 19.4887 11.009L11.9887 16.8424C11.7857 17.0002 11.667 17.243 11.667 17.5002V26.6668C11.667 27.3299 11.9304 27.9658 12.3992 28.4346C12.8681 28.9034 13.504 29.1668 14.167 29.1668H25.8337C26.4967 29.1668 27.1326 28.9034 27.6014 28.4346C28.0703 27.9658 28.3337 27.3299 28.3337 26.6668V17.5002C28.3337 17.243 28.2149 17.0002 28.0119 16.8424L20.5119 11.009ZM23.3337 27.5002H25.8337C26.0547 27.5002 26.2666 27.4124 26.4229 27.2561C26.5792 27.0998 26.667 26.8878 26.667 26.6668V17.9077L20.0003 12.7225L13.3337 17.9077V26.6668C13.3337 26.8878 13.4215 27.0998 13.5777 27.2561C13.734 27.4124 13.946 27.5002 14.167 27.5002H16.667V20.0002C16.667 19.5399 17.0401 19.1668 17.5003 19.1668H22.5003C22.9606 19.1668 23.3337 19.5399 23.3337 20.0002V27.5002ZM18.3337 27.5002V20.8335H21.667V27.5002H18.3337Z" fill="#6C7582"/>
</svg>
