<svg width="40" height="40" viewBox="0 0 40 40" fill="none" xmlns="http://www.w3.org/2000/svg">
<path fill-rule="evenodd" clip-rule="evenodd" d="M14.167 13.3333C13.946 13.3333 13.734 13.4211 13.5777 13.5774C13.4215 13.7337 13.3337 13.9456 13.3337 14.1666V25.8333C13.3337 26.0543 13.4215 26.2663 13.5777 26.4225C13.734 26.5788 13.946 26.6666 14.167 26.6666H17.5003C17.9606 26.6666 18.3337 27.0397 18.3337 27.5C18.3337 27.9602 17.9606 28.3333 17.5003 28.3333H14.167C13.504 28.3333 12.8681 28.0699 12.3992 27.6011C11.9304 27.1322 11.667 26.4963 11.667 25.8333V14.1666C11.667 13.5036 11.9304 12.8677 12.3992 12.3989C12.8681 11.93 13.504 11.6666 14.167 11.6666H17.5003C17.9606 11.6666 18.3337 12.0397 18.3337 12.5C18.3337 12.9602 17.9606 13.3333 17.5003 13.3333H14.167ZM22.7444 15.244C23.0698 14.9186 23.5975 14.9186 23.9229 15.244L28.0896 19.4107C28.415 19.7361 28.415 20.2638 28.0896 20.5892L23.9229 24.7559C23.5975 25.0813 23.0698 25.0813 22.7444 24.7559C22.419 24.4304 22.419 23.9028 22.7444 23.5774L25.4885 20.8333H17.5003C17.0401 20.8333 16.667 20.4602 16.667 20C16.667 19.5397 17.0401 19.1666 17.5003 19.1666H25.4885L22.7444 16.4225C22.419 16.0971 22.419 15.5695 22.7444 15.244Z" fill="#C6CCD1"/>
</svg>
