<svg width="20" height="20" viewBox="0 0 20 20" fill="currentColor" xmlns="http://www.w3.org/2000/svg">
<path fill-rule="evenodd" clip-rule="evenodd" d="M10.4212 3.33317C6.9716 3.33317 4.17519 6.12958 4.17519 9.57913C4.17519 10.5776 4.40885 11.519 4.8237 12.354C4.92172 12.5513 4.93763 12.7794 4.86797 12.9884L3.81059 16.1604L7.01467 15.1273C7.22184 15.0604 7.44692 15.0774 7.64179 15.1744C8.4779 15.5906 9.42095 15.8251 10.4212 15.8251C13.8707 15.8251 16.6671 13.0287 16.6671 9.57913C16.6671 6.12958 13.8707 3.33317 10.4212 3.33317ZM2.50853 9.57913C2.50853 5.20911 6.05113 1.6665 10.4212 1.6665C14.7912 1.6665 18.3338 5.20911 18.3338 9.57913C18.3338 13.9492 14.7912 17.4918 10.4212 17.4918C9.2807 17.4918 8.19476 17.25 7.21342 16.8143L2.75511 18.2519C2.4561 18.3483 2.12828 18.2684 1.90722 18.0451C1.68617 17.8219 1.60945 17.4933 1.7088 17.1953L3.18159 12.777C2.74869 11.7983 2.50853 10.7158 2.50853 9.57913Z"/>
</svg>
