<svg width="20" height="20" viewBox="0 0 20 20" fill="none" xmlns="http://www.w3.org/2000/svg">
<g clip-path="url(#clip0_430_28991)">
<path d="M15.833 0.976562C16.252 0.976562 16.6676 1.0594 17.0547 1.21973C17.4415 1.38002 17.7928 1.61507 18.0889 1.91113C18.3851 2.20738 18.6209 2.55922 18.7812 2.94629C18.9415 3.33327 19.0234 3.74815 19.0234 4.16699C19.0234 4.58585 18.9415 5.00071 18.7812 5.3877C18.6209 5.77477 18.3851 6.1266 18.0889 6.42285L6.83887 17.6729C6.73644 17.7752 6.60941 17.8495 6.46973 17.8877L1.88574 19.1377C1.59732 19.2162 1.28854 19.1342 1.07715 18.9229C0.865831 18.7114 0.783671 18.4027 0.862305 18.1143L2.1123 13.5312C2.15043 13.3914 2.22473 13.2636 2.32715 13.1611L13.5771 1.91113C13.8733 1.61496 14.2254 1.38005 14.6123 1.21973C14.9993 1.05945 15.4142 0.976617 15.833 0.976562Z" fill="#19398C"/>
</g>
<defs>
<clipPath id="clip0_430_28991">
<rect width="20" height="20" fill="white"/>
</clipPath>
</defs>
</svg>
