<svg width="20" height="20" viewBox="0 0 20 20" fill="none" xmlns="http://www.w3.org/2000/svg">
<g clip-path="url(#clip0_430_14229)">
<path fill-rule="evenodd" clip-rule="evenodd" d="M15.833 0.976074C15.4141 0.976074 14.9992 1.0586 14.6121 1.21893C14.2251 1.37926 13.8734 1.61426 13.5771 1.91051L2.3271 13.1605C2.22456 13.2631 2.15055 13.3906 2.11239 13.5305L0.862391 18.1138C0.783706 18.4023 0.865646 18.7109 1.0771 18.9224C1.28856 19.1338 1.59711 19.2157 1.88562 19.1371L6.46896 17.8871C6.60887 17.8489 6.7364 17.7749 6.83895 17.6724L18.0889 6.42235C18.3852 6.1261 18.6202 5.7744 18.7805 5.38733C18.9409 5.00025 19.0234 4.58539 19.0234 4.16643C19.0234 3.74747 18.9409 3.33261 18.7805 2.94553C18.6202 2.55846 18.3852 2.20676 18.0889 1.91051C17.7927 1.61426 17.441 1.37926 17.0539 1.21893C16.6669 1.0586 16.252 0.976074 15.833 0.976074ZM15.2499 2.75872C15.4348 2.68215 15.6329 2.64274 15.833 2.64274C16.0331 2.64274 16.2313 2.68215 16.4161 2.75872C16.601 2.8353 16.7689 2.94753 16.9104 3.08902C17.0519 3.23051 17.1642 3.39848 17.2407 3.58334C17.3173 3.7682 17.3567 3.96633 17.3567 4.16643C17.3567 4.36653 17.3173 4.56466 17.2407 4.74952C17.1642 4.93438 17.0519 5.10235 16.9104 5.24384L5.81692 16.3374L2.85404 17.1454L3.6621 14.1825L14.7556 3.08902C14.8971 2.94753 15.0651 2.8353 15.2499 2.75872Z" fill="currentColor"/>
</g>
<defs>
<clipPath id="clip0_430_14229">
<rect width="20" height="20" fill="white"/>
</clipPath>
</defs>
</svg>
