<svg width="40" height="40" viewBox="0 0 40 40" fill="none" xmlns="http://www.w3.org/2000/svg">
<g clip-path="url(#clip0_744_7124)">
<path fill-rule="evenodd" clip-rule="evenodd" d="M25.833 10.9763C25.4141 10.9763 24.9992 11.0588 24.6121 11.2192C24.2251 11.3795 23.8734 11.6145 23.5771 11.9108L12.3271 23.1608C12.2246 23.2633 12.1505 23.3908 12.1124 23.5307L10.8624 28.1141C10.7837 28.4026 10.8656 28.7111 11.0771 28.9226C11.2886 29.1341 11.5971 29.216 11.8856 29.1373L16.469 27.8873C16.6089 27.8492 16.7364 27.7751 16.8389 27.6726L28.0889 16.4226C28.3852 16.1263 28.6202 15.7746 28.7805 15.3876C28.9409 15.0005 29.0234 14.5856 29.0234 14.1667C29.0234 13.7477 28.9409 13.3329 28.7805 12.9458C28.6202 12.5587 28.3852 12.207 28.0889 11.9108C27.7927 11.6145 27.441 11.3795 27.0539 11.2192C26.6669 11.0588 26.252 10.9763 25.833 10.9763ZM25.2499 12.759C25.4348 12.6824 25.6329 12.643 25.833 12.643C26.0331 12.643 26.2313 12.6824 26.4161 12.759C26.601 12.8355 26.7689 12.9478 26.9104 13.0893C27.0519 13.2308 27.1642 13.3987 27.2407 13.5836C27.3173 13.7684 27.3567 13.9666 27.3567 14.1667C27.3567 14.3668 27.3173 14.5649 27.2407 14.7498C27.1642 14.9346 27.0519 15.1026 26.9104 15.2441L15.8169 26.3376L12.854 27.1457L13.6621 24.1828L24.7556 13.0893C24.8971 12.9478 25.0651 12.8355 25.2499 12.759Z" fill="#6C7582"/>
</g>
<defs>
<clipPath id="clip0_744_7124">
<rect width="20" height="20" fill="white" transform="translate(10 10)"/>
</clipPath>
</defs>
</svg>
