<svg width="20" height="20" viewBox="0 0 20 20" fill="none" xmlns="http://www.w3.org/2000/svg">
<path d="M9.16699 1.5C13.401 1.50018 16.833 4.93292 16.833 9.16699C16.8329 10.9234 16.2405 12.5404 15.2471 13.833L18.207 16.793L18.2754 16.8691C18.5957 17.2619 18.5731 17.8409 18.207 18.207C17.8409 18.5731 17.2619 18.5957 16.8691 18.2754L16.793 18.207L13.833 15.2471C12.5404 16.2405 10.9234 16.8329 9.16699 16.833C4.93292 16.833 1.50018 13.401 1.5 9.16699C1.5 4.93281 4.93281 1.5 9.16699 1.5ZM9.16699 3.5C6.03738 3.5 3.5 6.03738 3.5 9.16699C3.50018 12.2965 6.03749 14.833 9.16699 14.833C10.6949 14.8329 12.0806 14.2273 13.0996 13.2441C13.121 13.218 13.1436 13.1924 13.168 13.168C13.1925 13.1434 13.2178 13.1201 13.2441 13.0986C14.227 12.0796 14.8329 10.6946 14.833 9.16699C14.833 6.03749 12.2965 3.50018 9.16699 3.5Z" fill="#6C7582"/>
</svg>
