<svg width="40" height="40" viewBox="0 0 40 40" fill="none" xmlns="http://www.w3.org/2000/svg">
<path fill-rule="evenodd" clip-rule="evenodd" d="M20.747 11.2979C20.6066 11.0134 20.3169 10.8334 19.9997 10.8334C19.6825 10.8334 19.3928 11.0134 19.2524 11.2979L16.8711 16.1221L11.5458 16.9005C11.232 16.9463 10.9715 17.1663 10.8737 17.468C10.7758 17.7697 10.8577 18.1007 11.0849 18.322L14.9376 22.0745L14.0284 27.3758C13.9747 27.6885 14.1033 28.0045 14.3599 28.1909C14.6166 28.3774 14.9568 28.4019 15.2376 28.2543L19.9997 25.7499L24.7618 28.2543C25.0426 28.4019 25.3828 28.3774 25.6395 28.1909C25.8961 28.0045 26.0247 27.6885 25.971 27.3758L25.0618 22.0745L28.9145 18.322C29.1417 18.1007 29.2236 17.7697 29.1257 17.468C29.0279 17.1663 28.7674 16.9463 28.4536 16.9005L23.1283 16.1221L20.747 11.2979ZM18.172 17.2522L19.9997 13.5494L21.8274 17.2522C21.9487 17.4979 22.183 17.6683 22.4542 17.7079L26.5427 18.3055L23.5849 21.1864C23.3884 21.3779 23.2986 21.6538 23.345 21.9242L24.0429 25.9931L20.3876 24.0708C20.1448 23.9431 19.8546 23.9431 19.6118 24.0708L15.9565 25.9931L16.6544 21.9242C16.7008 21.6538 16.611 21.3779 16.4145 21.1864L13.4567 18.3055L17.5452 17.7079C17.8164 17.6683 18.0507 17.4979 18.172 17.2522Z" fill="#6C7582"/>
</svg>
