<svg width="20" height="20" viewBox="0 0 20 20" fill="none" xmlns="http://www.w3.org/2000/svg">
<path fill-rule="evenodd" clip-rule="evenodd" d="M10.747 1.29798C10.6066 1.01356 10.3169 0.833496 9.9997 0.833496C9.68252 0.833496 9.39284 1.01356 9.25244 1.29798L6.87115 6.12222L1.54584 6.90059C1.23204 6.94646 0.971475 7.16646 0.87366 7.46813C0.775846 7.76981 0.85774 8.10085 1.08492 8.32213L4.9376 12.0746L4.02836 17.376C3.97473 17.6886 4.10327 18.0046 4.35992 18.191C4.61657 18.3775 4.95681 18.402 5.23757 18.2544L9.9997 15.75L14.7618 18.2544C15.0426 18.402 15.3828 18.3775 15.6395 18.191C15.8961 18.0046 16.0247 17.6886 15.971 17.376L15.0618 12.0746L18.9145 8.32213C19.1417 8.10085 19.2236 7.76981 19.1257 7.46813C19.0279 7.16646 18.7674 6.94646 18.4536 6.90059L13.1283 6.12222L10.747 1.29798ZM8.17196 7.25235L9.9997 3.54954L11.8274 7.25235C11.9487 7.49806 12.183 7.66844 12.4542 7.70807L16.5427 8.30567L13.5849 11.1865C13.3884 11.378 13.2986 11.6539 13.345 11.9244L14.0429 15.9932L10.3876 14.0709C10.1448 13.9432 9.85464 13.9432 9.61182 14.0709L5.95652 15.9932L6.65437 11.9244C6.70076 11.6539 6.61104 11.378 6.41448 11.1865L3.45671 8.30567L7.54522 7.70807C7.81635 7.66844 8.05067 7.49806 8.17196 7.25235Z" fill="#6C7582"/>
</svg>
