<svg width="16" height="16" viewBox="0 0 16 16" fill="none" xmlns="http://www.w3.org/2000/svg">
<path d="M8.4701 1.52876C8.20975 1.26841 7.78764 1.26841 7.52729 1.52876L4.19396 4.86209C3.93361 5.12244 3.93361 5.54455 4.19396 5.8049C4.45431 6.06525 4.87642 6.06525 5.13677 5.8049L7.33203 3.60964V10.0478C7.33203 10.416 7.63051 10.7145 7.9987 10.7145C8.36689 10.7145 8.66536 10.416 8.66536 10.0478V3.60964L10.8606 5.8049C11.121 6.06525 11.5431 6.06525 11.8034 5.8049C12.0638 5.54455 12.0638 5.12244 11.8034 4.86209L8.4701 1.52876Z" fill="#6C7582"/>
<path d="M2.66536 10.0002C2.66536 9.63197 2.36689 9.3335 1.9987 9.3335C1.63051 9.3335 1.33203 9.63197 1.33203 10.0002V12.6668C1.33203 13.1973 1.54274 13.706 1.91782 14.081C2.29289 14.4561 2.8016 14.6668 3.33203 14.6668H12.6654C13.1958 14.6668 13.7045 14.4561 14.0796 14.081C14.4547 13.706 14.6654 13.1973 14.6654 12.6668V10.0002C14.6654 9.63197 14.3669 9.3335 13.9987 9.3335C13.6305 9.3335 13.332 9.63197 13.332 10.0002V12.6668C13.332 12.8436 13.2618 13.0132 13.1368 13.1382C13.0117 13.2633 12.8422 13.3335 12.6654 13.3335H3.33203C3.15522 13.3335 2.98565 13.2633 2.86063 13.1382C2.7356 13.0132 2.66536 12.8436 2.66536 12.6668V10.0002Z" fill="#6C7582"/>
</svg>
