<svg width="20" height="20" viewBox="0 0 20 20" fill="none" xmlns="http://www.w3.org/2000/svg">
<g clip-path="url(#clip0_1197_4444)">
<path d="M10.8335 4.9987C10.8335 4.53846 10.4604 4.16536 10.0002 4.16536C9.53992 4.16536 9.16683 4.53846 9.16683 4.9987V9.9987C9.16683 10.3143 9.34516 10.6029 9.62748 10.7441L12.9608 12.4107C13.3725 12.6165 13.873 12.4497 14.0789 12.038C14.2847 11.6264 14.1178 11.1258 13.7062 10.92L10.8335 9.48367V4.9987Z" fill="#8A94A0"/>
<path fill-rule="evenodd" clip-rule="evenodd" d="M10.0002 0.832031C4.93755 0.832031 0.833496 4.93609 0.833496 9.9987C0.833496 15.0613 4.93755 19.1654 10.0002 19.1654C15.0628 19.1654 19.1668 15.0613 19.1668 9.9987C19.1668 4.93609 15.0628 0.832031 10.0002 0.832031ZM2.50016 9.9987C2.50016 5.85656 5.85803 2.4987 10.0002 2.4987C14.1423 2.4987 17.5002 5.85656 17.5002 9.9987C17.5002 14.1408 14.1423 17.4987 10.0002 17.4987C5.85803 17.4987 2.50016 14.1408 2.50016 9.9987Z" fill="#8A94A0"/>
</g>
<defs>
<clipPath id="clip0_1197_4444">
<rect width="20" height="20" fill="white"/>
</clipPath>
</defs>
</svg>
