<svg width="20" height="20" viewBox="0 0 20 20" fill="none" xmlns="http://www.w3.org/2000/svg">
<path fill-rule="evenodd" clip-rule="evenodd" d="M8.42536 1.67314C8.88278 1.72396 9.21239 2.13598 9.16157 2.5934L8.70883 6.66804H12.0319L12.5051 2.40935C12.5559 1.95193 12.9679 1.62231 13.4254 1.67314C13.8828 1.72396 14.2124 2.13598 14.1616 2.5934L13.7088 6.66804H16.6667C17.1269 6.66804 17.5 7.04114 17.5 7.50138C17.5 7.96161 17.1269 8.33471 16.6667 8.33471H13.5236L13.1533 11.668H16.6667C17.1269 11.668 17.5 12.0411 17.5 12.5014C17.5 12.9616 17.1269 13.3347 16.6667 13.3347H12.9681L12.4949 17.5934C12.4441 18.0508 12.0321 18.3804 11.5746 18.3296C11.1172 18.2788 10.7876 17.8668 10.8384 17.4093L11.2912 13.3347H7.96809L7.4949 17.5934C7.44408 18.0508 7.03206 18.3804 6.57464 18.3296C6.11722 18.2788 5.78761 17.8668 5.83843 17.4093L6.29117 13.3347H3.33333C2.8731 13.3347 2.5 12.9616 2.5 12.5014C2.5 12.0411 2.8731 11.668 3.33333 11.668H6.47635L6.84672 8.33471H3.33333C2.8731 8.33471 2.5 7.96161 2.5 7.50138C2.5 7.04114 2.8731 6.66804 3.33333 6.66804H7.03191L7.5051 2.40935C7.55592 1.95193 7.96794 1.62231 8.42536 1.67314ZM11.4764 11.668L11.8467 8.33471H8.52365L8.15328 11.668H11.4764Z" fill="#A6AEB6"/>
</svg>
