<svg width="20" height="20" viewBox="0 0 20 20" fill="none" xmlns="http://www.w3.org/2000/svg">
<g clip-path="url(#clip0_1197_4437)">
<path d="M10.8335 1.66536C10.8335 1.20513 10.4604 0.832031 10.0002 0.832031C9.53992 0.832031 9.16683 1.20513 9.16683 1.66536V4.9987C9.16683 5.45893 9.53992 5.83203 10.0002 5.83203C10.4604 5.83203 10.8335 5.45893 10.8335 4.9987V1.66536Z" fill="#A6AEB6"/>
<path d="M10.8335 14.9987C10.8335 14.5385 10.4604 14.1654 10.0002 14.1654C9.53992 14.1654 9.16683 14.5385 9.16683 14.9987V18.332C9.16683 18.7923 9.53992 19.1654 10.0002 19.1654C10.4604 19.1654 10.8335 18.7923 10.8335 18.332V14.9987Z" fill="#A6AEB6"/>
<path d="M3.51918 3.51777C3.84462 3.19233 4.37226 3.19233 4.69769 3.51777L7.05603 5.8761C7.38146 6.20154 7.38146 6.72918 7.05603 7.05461C6.73059 7.38005 6.20295 7.38005 5.87752 7.05461L3.51918 4.69628C3.19375 4.37084 3.19375 3.84321 3.51918 3.51777Z" fill="#A6AEB6"/>
<path d="M14.1227 12.9428C13.7973 12.6173 13.2697 12.6173 12.9442 12.9428C12.6188 13.2682 12.6188 13.7959 12.9442 14.1213L15.3026 16.4796C15.628 16.8051 16.1556 16.8051 16.4811 16.4796C16.8065 16.1542 16.8065 15.6265 16.4811 15.3011L14.1227 12.9428Z" fill="#A6AEB6"/>
<path d="M0.833496 9.9987C0.833496 9.53846 1.20659 9.16536 1.66683 9.16536H5.00016C5.4604 9.16536 5.8335 9.53846 5.8335 9.9987C5.8335 10.4589 5.4604 10.832 5.00016 10.832H1.66683C1.20659 10.832 0.833496 10.4589 0.833496 9.9987Z" fill="#A6AEB6"/>
<path d="M15.0002 9.16536C14.5399 9.16536 14.1668 9.53846 14.1668 9.9987C14.1668 10.4589 14.5399 10.832 15.0002 10.832H18.3335C18.7937 10.832 19.1668 10.4589 19.1668 9.9987C19.1668 9.53846 18.7937 9.16536 18.3335 9.16536H15.0002Z" fill="#A6AEB6"/>
<path d="M7.05603 12.9428C7.38146 13.2682 7.38146 13.7959 7.05603 14.1213L4.69769 16.4796C4.37226 16.8051 3.84462 16.8051 3.51918 16.4796C3.19375 16.1542 3.19375 15.6265 3.51918 15.3011L5.87752 12.9428C6.20295 12.6173 6.73059 12.6173 7.05603 12.9428Z" fill="#A6AEB6"/>
<path d="M16.4811 4.69628C16.8065 4.37084 16.8065 3.84321 16.4811 3.51777C16.1556 3.19233 15.628 3.19233 15.3026 3.51777L12.9442 5.8761C12.6188 6.20154 12.6188 6.72918 12.9442 7.05461C13.2697 7.38005 13.7973 7.38005 14.1227 7.05461L16.4811 4.69628Z" fill="#A6AEB6"/>
</g>
<defs>
<clipPath id="clip0_1197_4437">
<rect width="20" height="20" fill="white"/>
</clipPath>
</defs>
</svg>
