<svg width="20" height="20" viewBox="0 0 20 20" fill="none" xmlns="http://www.w3.org/2000/svg">
<path fill-rule="evenodd" clip-rule="evenodd" d="M10 1.66797C7.69881 1.66797 5.83333 3.53345 5.83333 5.83464C5.83333 8.13582 7.69881 10.0013 10 10.0013C12.3012 10.0013 14.1667 8.13582 14.1667 5.83464C14.1667 3.53345 12.3012 1.66797 10 1.66797ZM7.5 5.83464C7.5 4.45392 8.61929 3.33464 10 3.33464C11.3807 3.33464 12.5 4.45392 12.5 5.83464C12.5 7.21535 11.3807 8.33464 10 8.33464C8.61929 8.33464 7.5 7.21535 7.5 5.83464Z" fill="#A6AEB6"/>
<path d="M6.66667 11.668C5.5616 11.668 4.50179 12.107 3.72039 12.8884C2.93899 13.6698 2.5 14.7296 2.5 15.8346V17.5013C2.5 17.9615 2.8731 18.3346 3.33333 18.3346C3.79357 18.3346 4.16667 17.9615 4.16667 17.5013V15.8346C4.16667 15.1716 4.43006 14.5357 4.8989 14.0669C5.36774 13.598 6.00363 13.3346 6.66667 13.3346H13.3333C13.9964 13.3346 14.6323 13.598 15.1011 14.0669C15.5699 14.5357 15.8333 15.1716 15.8333 15.8346V17.5013C15.8333 17.9615 16.2064 18.3346 16.6667 18.3346C17.1269 18.3346 17.5 17.9615 17.5 17.5013V15.8346C17.5 14.7296 17.061 13.6698 16.2796 12.8884C15.4982 12.107 14.4384 11.668 13.3333 11.668H6.66667Z" fill="#A6AEB6"/>
</svg>
