<svg width="20" height="20" viewBox="0 0 20 20" fill="none" xmlns="http://www.w3.org/2000/svg">
<g clip-path="url(#clip0_276_4243)">
<path d="M10.834 4.99967C10.834 4.53944 10.4609 4.16634 10.0007 4.16634C9.54041 4.16634 9.16732 4.53944 9.16732 4.99967V9.99967C9.16732 10.3153 9.34565 10.6039 9.62797 10.745L12.9613 12.4117C13.373 12.6175 13.8735 12.4507 14.0793 12.039C14.2852 11.6274 14.1183 11.1268 13.7067 10.921L10.834 9.48464V4.99967Z" fill="#8A94A0"/>
<path fill-rule="evenodd" clip-rule="evenodd" d="M10.0007 0.833008C4.93804 0.833008 0.833984 4.93706 0.833984 9.99967C0.833984 15.0623 4.93804 19.1663 10.0007 19.1663C15.0633 19.1663 19.1673 15.0623 19.1673 9.99967C19.1673 4.93706 15.0633 0.833008 10.0007 0.833008ZM2.50065 9.99967C2.50065 5.85754 5.85851 2.49967 10.0007 2.49967C14.1428 2.49967 17.5006 5.85754 17.5006 9.99967C17.5006 14.1418 14.1428 17.4997 10.0007 17.4997C5.85851 17.4997 2.50065 14.1418 2.50065 9.99967Z" fill="#8A94A0"/>
</g>
<defs>
<clipPath id="clip0_276_4243">
<rect width="20" height="20" fill="white"/>
</clipPath>
</defs>
</svg>
