<svg width="15" height="12" viewBox="0 0 15 12" fill="none" xmlns="http://www.w3.org/2000/svg">
<path d="M2.20711 0.292893C1.81658 -0.0976311 1.18342 -0.0976311 0.792893 0.292893C0.402369 0.683417 0.402369 1.31658 0.792893 1.70711L5.08579 6L0.792893 10.2929C0.402369 10.6834 0.402369 11.3166 0.792893 11.7071C1.18342 12.0976 1.81658 12.0976 2.20711 11.7071L7.20711 6.70711C7.59763 6.31658 7.59763 5.68342 7.20711 5.29289L2.20711 0.292893Z" fill="#A6AEB6"/>
<path d="M9.20711 0.292893C8.81658 -0.0976311 8.18342 -0.0976311 7.79289 0.292893C7.40237 0.683417 7.40237 1.31658 7.79289 1.70711L12.0858 6L7.79289 10.2929C7.40237 10.6834 7.40237 11.3166 7.79289 11.7071C8.18342 12.0976 8.81658 12.0976 9.20711 11.7071L14.2071 6.70711C14.5976 6.31658 14.5976 5.68342 14.2071 5.29289L9.20711 0.292893Z" fill="#A6AEB6"/>
</svg>
