<svg width="20" height="20" viewBox="0 0 20 20" fill="none" xmlns="http://www.w3.org/2000/svg">
<path d="M10.0004 0.832031C10.3176 0.832031 10.6081 1.01246 10.7485 1.29688L13.1293 6.12109L18.4545 6.89941C18.7683 6.94528 19.0286 7.16513 19.1264 7.4668C19.2242 7.76841 19.1426 8.09904 18.9155 8.32031L15.0629 12.0732L15.9721 17.374C16.0257 17.6867 15.8967 18.003 15.6401 18.1895C15.3835 18.3757 15.0438 18.4004 14.7631 18.2529L10.0004 15.749L5.23872 18.2529C4.95796 18.4006 4.61744 18.3759 4.36079 18.1895C4.10427 18.003 3.97612 17.6866 4.02973 17.374L4.93891 12.0732L1.08638 8.32031C0.859243 8.09909 0.776746 7.76842 0.874461 7.4668C0.972276 7.16512 1.23351 6.94528 1.54731 6.89941L6.87251 6.12109L9.25337 1.29688C9.39371 1.01256 9.68339 0.832161 10.0004 0.832031Z" fill="#19398C"/>
</svg>
