<svg width="20" height="20" viewBox="0 0 20 20" fill="none" xmlns="http://www.w3.org/2000/svg">
<g clip-path="url(#clip0_276_4238)">
<path d="M10.834 1.66634C10.834 1.2061 10.4609 0.833008 10.0007 0.833008C9.54041 0.833008 9.16732 1.2061 9.16732 1.66634V4.99967C9.16732 5.45991 9.54041 5.83301 10.0007 5.83301C10.4609 5.83301 10.834 5.45991 10.834 4.99967V1.66634Z" fill="#A6AEB6"/>
<path d="M10.834 14.9997C10.834 14.5394 10.4609 14.1663 10.0007 14.1663C9.54041 14.1663 9.16732 14.5394 9.16732 14.9997V18.333C9.16732 18.7932 9.54041 19.1663 10.0007 19.1663C10.4609 19.1663 10.834 18.7932 10.834 18.333V14.9997Z" fill="#A6AEB6"/>
<path d="M3.51967 3.51875C3.84511 3.19331 4.37275 3.19331 4.69818 3.51875L7.05652 5.87708C7.38195 6.20252 7.38195 6.73015 7.05652 7.05559C6.73108 7.38103 6.20344 7.38103 5.878 7.05559L3.51967 4.69726C3.19423 4.37182 3.19423 3.84418 3.51967 3.51875Z" fill="#A6AEB6"/>
<path d="M14.1232 12.9438C13.7978 12.6183 13.2702 12.6183 12.9447 12.9438C12.6193 13.2692 12.6193 13.7968 12.9447 14.1223L15.3031 16.4806C15.6285 16.806 16.1561 16.806 16.4816 16.4806C16.807 16.1552 16.807 15.6275 16.4816 15.3021L14.1232 12.9438Z" fill="#A6AEB6"/>
<path d="M0.833984 9.99967C0.833984 9.53944 1.20708 9.16634 1.66732 9.16634H5.00065C5.46089 9.16634 5.83398 9.53944 5.83398 9.99967C5.83398 10.4599 5.46089 10.833 5.00065 10.833H1.66732C1.20708 10.833 0.833984 10.4599 0.833984 9.99967Z" fill="#A6AEB6"/>
<path d="M15.0006 9.16634C14.5404 9.16634 14.1673 9.53944 14.1673 9.99967C14.1673 10.4599 14.5404 10.833 15.0006 10.833H18.334C18.7942 10.833 19.1673 10.4599 19.1673 9.99967C19.1673 9.53944 18.7942 9.16634 18.334 9.16634H15.0006Z" fill="#A6AEB6"/>
<path d="M7.05652 12.9438C7.38195 13.2692 7.38195 13.7968 7.05652 14.1223L4.69818 16.4806C4.37275 16.806 3.84511 16.806 3.51967 16.4806C3.19423 16.1552 3.19423 15.6275 3.51967 15.3021L5.878 12.9438C6.20344 12.6183 6.73108 12.6183 7.05652 12.9438Z" fill="#A6AEB6"/>
<path d="M16.4816 4.69726C16.807 4.37182 16.807 3.84418 16.4816 3.51875C16.1561 3.19331 15.6285 3.19331 15.3031 3.51875L12.9447 5.87708C12.6193 6.20252 12.6193 6.73015 12.9447 7.05559C13.2702 7.38103 13.7978 7.38103 14.1232 7.05559L16.4816 4.69726Z" fill="#A6AEB6"/>
</g>
<defs>
<clipPath id="clip0_276_4238">
<rect width="20" height="20" fill="white"/>
</clipPath>
</defs>
</svg>
