<svg width="16" height="16" viewBox="0 0 16 16" fill="none" xmlns="http://www.w3.org/2000/svg">
<path fill-rule="evenodd" clip-rule="evenodd" d="M12.666 0.78125C12.3309 0.78125 11.999 0.847267 11.6893 0.975531C11.3797 1.1038 11.0983 1.2918 10.8613 1.5288L1.86129 10.5288C1.77926 10.6108 1.72005 10.7129 1.68952 10.8248L0.689522 14.4915C0.626574 14.7223 0.692126 14.9691 0.861293 15.1383C1.03046 15.3074 1.2773 15.373 1.50811 15.31L5.17478 14.31C5.28671 14.2795 5.38873 14.2203 5.47077 14.1383L14.4708 5.13827C14.7078 4.90127 14.8958 4.61991 15.024 4.31025C15.1523 4.00059 15.2183 3.6687 15.2183 3.33353C15.2183 2.99837 15.1523 2.66648 15.024 2.35682C14.8958 2.04716 14.7078 1.7658 14.4708 1.5288C14.2338 1.2918 13.9524 1.1038 13.6427 0.975531C13.3331 0.847267 13.0012 0.78125 12.666 0.78125ZM12.1996 2.20737C12.3474 2.14611 12.506 2.11458 12.666 2.11458C12.8261 2.11458 12.9846 2.14611 13.1325 2.20737C13.2804 2.26863 13.4148 2.35842 13.528 2.47161C13.6412 2.5848 13.7309 2.71917 13.7922 2.86706C13.8535 3.01495 13.885 3.17346 13.885 3.33353C13.885 3.49361 13.8535 3.65212 13.7922 3.80001C13.7309 3.9479 13.6412 4.08227 13.528 4.19546L4.65315 13.0703L2.28284 13.7167L2.92929 11.3464L11.8041 2.47161C11.9173 2.35842 12.0517 2.26863 12.1996 2.20737Z" fill="white"/>
</svg>
