<svg width="20" height="20" viewBox="0 0 20 20" fill="none" xmlns="http://www.w3.org/2000/svg">
    <path fill-rule="evenodd" clip-rule="evenodd"
        d="M10.7479 1.29749C10.6075 1.01307 10.3179 0.833008 10.0007 0.833008C9.68349 0.833008 9.39381 1.01307 9.25342 1.29749L6.87212 6.12173L1.54682 6.9001C1.23302 6.94597 0.972452 7.16597 0.874637 7.46765C0.776822 7.76932 0.858716 8.10037 1.0859 8.32164L4.93857 12.0741L4.02933 17.3755C3.97571 17.6881 4.10425 18.0041 4.3609 18.1906C4.61755 18.377 4.95779 18.4016 5.23855 18.2539L10.0007 15.7495L14.7628 18.2539C15.0436 18.4016 15.3838 18.377 15.6405 18.1906C15.8971 18.0041 16.0256 17.6881 15.972 17.3755L15.0628 12.0741L18.9155 8.32164C19.1426 8.10037 19.2245 7.76932 19.1267 7.46765C19.0289 7.16597 18.7683 6.94597 18.4545 6.9001L13.1292 6.12173L10.7479 1.29749ZM8.17293 7.25186L10.0007 3.54905L11.8284 7.25186C11.9497 7.49757 12.184 7.66795 12.4552 7.70758L16.5437 8.30518L13.5859 11.186C13.3893 11.3775 13.2996 11.6534 13.346 11.9239L14.0439 15.9927L10.3886 14.0704C10.1457 13.9427 9.85562 13.9427 9.6128 14.0704L5.95749 15.9927L6.65535 11.9239C6.70173 11.6534 6.61201 11.3775 6.41545 11.186L3.45768 8.30518L7.5462 7.70758C7.81733 7.66795 8.05165 7.49757 8.17293 7.25186Z"
        fill="#C6CCD1" />
</svg>