<svg width="16" height="16" viewBox="0 0 16 16" fill="none" xmlns="http://www.w3.org/2000/svg">
<path d="M8.47206 1.52827C8.21171 1.26792 7.7896 1.26792 7.52925 1.52827L4.19591 4.8616C3.93556 5.12195 3.93556 5.54406 4.19591 5.80441C4.45626 6.06476 4.87837 6.06476 5.13872 5.80441L7.33398 3.60915V10.0473C7.33398 10.4155 7.63246 10.714 8.00065 10.714C8.36884 10.714 8.66732 10.4155 8.66732 10.0473V3.60915L10.8626 5.80441C11.1229 6.06476 11.545 6.06476 11.8054 5.80441C12.0657 5.54406 12.0657 5.12195 11.8054 4.8616L8.47206 1.52827Z" fill="#6C7582"/>
<path d="M2.66732 9.99967C2.66732 9.63148 2.36884 9.33301 2.00065 9.33301C1.63246 9.33301 1.33398 9.63148 1.33398 9.99967V12.6663C1.33398 13.1968 1.5447 13.7055 1.91977 14.0806C2.29484 14.4556 2.80355 14.6663 3.33398 14.6663H12.6673C13.1978 14.6663 13.7065 14.4556 14.0815 14.0806C14.4566 13.7055 14.6673 13.1968 14.6673 12.6663V9.99967C14.6673 9.63148 14.3688 9.33301 14.0007 9.33301C13.6325 9.33301 13.334 9.63148 13.334 9.99967V12.6663C13.334 12.8432 13.2637 13.0127 13.1387 13.1377C13.0137 13.2628 12.8441 13.333 12.6673 13.333H3.33398C3.15717 13.333 2.9876 13.2628 2.86258 13.1377C2.73756 13.0127 2.66732 12.8432 2.66732 12.6663V9.99967Z" fill="#6C7582"/>
</svg>
