<svg width="32" height="33" viewBox="0 0 32 33" fill="none" xmlns="http://www.w3.org/2000/svg">
<path fill-rule="evenodd" clip-rule="evenodd" d="M12 3.16699C8.3181 3.16699 5.33333 6.15176 5.33333 9.83366C5.33333 13.5156 8.3181 16.5003 12 16.5003C15.6819 16.5003 18.6667 13.5156 18.6667 9.83366C18.6667 6.15176 15.6819 3.16699 12 3.16699ZM8 9.83366C8 7.62452 9.79086 5.83366 12 5.83366C14.2091 5.83366 16 7.62452 16 9.83366C16 12.0428 14.2091 13.8337 12 13.8337C9.79086 13.8337 8 12.0428 8 9.83366Z" fill="#A6AEB6"/>
<path d="M6.66667 19.167C4.89856 19.167 3.20286 19.8694 1.95262 21.1196C0.702379 22.3699 0 24.0655 0 25.8337V28.5003C0 29.2367 0.596954 29.8337 1.33333 29.8337C2.06971 29.8337 2.66667 29.2367 2.66667 28.5003V25.8337C2.66667 24.7728 3.08809 23.7554 3.83824 23.0052C4.58839 22.2551 5.6058 21.8337 6.66667 21.8337H17.3333C18.3942 21.8337 19.4116 22.2551 20.1618 23.0052C20.9119 23.7554 21.3333 24.7728 21.3333 25.8337V28.5003C21.3333 29.2367 21.9303 29.8337 22.6667 29.8337C23.403 29.8337 24 29.2367 24 28.5003V25.8337C24 24.0655 23.2976 22.3699 22.0474 21.1196C20.7971 19.8694 19.1014 19.167 17.3333 19.167H6.66667Z" fill="#A6AEB6"/>
<path d="M25.3757 20.3403C25.5598 19.6273 26.287 19.1986 27 19.3827C28.4302 19.752 29.6973 20.5858 30.6023 21.7532C31.5073 22.9206 31.9989 24.3556 32 25.8327V28.5003C32 29.2367 31.403 29.8337 30.6667 29.8337C29.9303 29.8337 29.3333 29.2367 29.3333 28.5003V25.8347C29.3326 24.9485 29.0376 24.0873 28.4947 23.387C27.9517 22.6865 27.1915 22.1862 26.3333 21.9647C25.6203 21.7806 25.1916 21.0533 25.3757 20.3403Z" fill="#A6AEB6"/>
<path d="M21.6641 3.382C20.9507 3.19935 20.2243 3.62958 20.0417 4.34295C19.859 5.05631 20.2892 5.78268 21.0026 5.96533C21.863 6.18563 22.6257 6.68603 23.1703 7.38764C23.7149 8.08925 24.0105 8.95216 24.0105 9.84033C24.0105 10.7285 23.7149 11.5914 23.1703 12.293C22.6257 12.9946 21.863 13.495 21.0026 13.7153C20.2892 13.898 19.859 14.6243 20.0417 15.3377C20.2243 16.0511 20.9507 16.4813 21.6641 16.2987C23.0981 15.9315 24.3691 15.0975 25.2768 13.9281C26.1845 12.7588 26.6771 11.3206 26.6771 9.84033C26.6771 8.36005 26.1845 6.92186 25.2768 5.75252C24.3691 4.58317 23.0981 3.74917 21.6641 3.382Z" fill="#A6AEB6"/>
</svg>
