<svg width="17" height="16" viewBox="0 0 17 16" fill="none" xmlns="http://www.w3.org/2000/svg">
<path fill-rule="evenodd" clip-rule="evenodd" d="M3.83203 2.66683C3.65522 2.66683 3.48565 2.73707 3.36063 2.86209C3.2356 2.98712 3.16536 3.15668 3.16536 3.3335V12.6668C3.16536 12.8436 3.2356 13.0132 3.36063 13.1382C3.48565 13.2633 3.65522 13.3335 3.83203 13.3335H6.4987C6.86689 13.3335 7.16536 13.632 7.16536 14.0002C7.16536 14.3684 6.86689 14.6668 6.4987 14.6668H3.83203C3.3016 14.6668 2.79289 14.4561 2.41782 14.081C2.04274 13.706 1.83203 13.1973 1.83203 12.6668V3.3335C1.83203 2.80306 2.04274 2.29436 2.41782 1.91928C2.79289 1.54421 3.3016 1.3335 3.83203 1.3335H6.4987C6.86689 1.3335 7.16536 1.63197 7.16536 2.00016C7.16536 2.36835 6.86689 2.66683 6.4987 2.66683H3.83203ZM10.694 4.19543C10.9543 3.93508 11.3764 3.93508 11.6368 4.19543L14.9701 7.52876C15.2305 7.78911 15.2305 8.21122 14.9701 8.47157L11.6368 11.8049C11.3764 12.0653 10.9543 12.0653 10.694 11.8049C10.4336 11.5446 10.4336 11.1224 10.694 10.8621L12.8892 8.66683H6.4987C6.13051 8.66683 5.83203 8.36835 5.83203 8.00016C5.83203 7.63197 6.13051 7.3335 6.4987 7.3335H12.8892L10.694 5.13823C10.4336 4.87788 10.4336 4.45577 10.694 4.19543Z" fill="#A6AEB6"/>
</svg>
