<svg width="16" height="17" viewBox="0 0 16 17" fill="none" xmlns="http://www.w3.org/2000/svg">
<path fill-rule="evenodd" clip-rule="evenodd" d="M0.667082 4.48844C0.666974 4.49502 0.666963 4.50159 0.667049 4.50817V12.5C0.667049 13.6015 1.56553 14.5 2.66705 14.5H13.3337C14.4352 14.5 15.3337 13.6015 15.3337 12.5V4.50824C15.3338 4.50161 15.3338 4.49498 15.3337 4.48834C15.3274 3.39214 14.4314 2.5 13.3337 2.5H2.66705C1.56938 2.5 0.673343 3.3922 0.667082 4.48844ZM2.07143 4.20263C2.18169 3.98462 2.40841 3.83333 2.66705 3.83333H13.3337C13.5924 3.83333 13.8191 3.98462 13.9293 4.20263L8.00038 8.3529L2.07143 4.20263ZM14.0004 5.78044V12.5C14.0004 12.8651 13.6989 13.1667 13.3337 13.1667H2.66705C2.30191 13.1667 2.00038 12.8651 2.00038 12.5V5.78044L7.61807 9.71282C7.84762 9.8735 8.15314 9.8735 8.38269 9.71282L14.0004 5.78044Z" fill="#A6AEB6"/>
</svg>
