<svg width="16" height="17" viewBox="0 0 16 17" fill="none" xmlns="http://www.w3.org/2000/svg">
<path d="M14.6669 11.7807V13.7807C14.6677 13.9664 14.6297 14.1502 14.5553 14.3203C14.4809 14.4904 14.3718 14.6431 14.235 14.7686C14.0982 14.8941 13.9367 14.9897 13.7608 15.0492C13.5849 15.1087 13.3985 15.1308 13.2136 15.114C11.1622 14.8911 9.19161 14.1901 7.46028 13.0674C5.8495 12.0438 4.48384 10.6782 3.46028 9.06738C2.3336 7.32819 1.63244 5.34805 1.41361 3.28738C1.39695 3.10303 1.41886 2.91722 1.47795 2.7418C1.53703 2.56637 1.63199 2.40518 1.75679 2.26846C1.88159 2.13175 2.03348 2.02252 2.20281 1.94773C2.37213 1.87294 2.55517 1.83422 2.74028 1.83405H4.74028C5.06382 1.83086 5.37748 1.94543 5.62279 2.1564C5.8681 2.36737 6.02833 2.66035 6.07361 2.98072C6.15803 3.62076 6.31458 4.2492 6.54028 4.85405C6.62998 5.09266 6.64939 5.35199 6.59622 5.6013C6.54305 5.85061 6.41952 6.07946 6.24028 6.26072L5.39361 7.10738C6.34265 8.77641 7.72458 10.1583 9.39361 11.1074L10.2403 10.2607C10.4215 10.0815 10.6504 9.95795 10.8997 9.90478C11.149 9.85161 11.4083 9.87102 11.6469 9.96072C12.2518 10.1864 12.8802 10.343 13.5203 10.4274C13.8441 10.4731 14.1399 10.6362 14.3513 10.8857C14.5627 11.1352 14.6751 11.4538 14.6669 11.7807Z" stroke="#A6AEB6" stroke-width="1.5" stroke-linecap="round" stroke-linejoin="round"/>
</svg>
