<svg width="16" height="16" viewBox="0 0 16 16" fill="none" xmlns="http://www.w3.org/2000/svg">
<g opacity="0.8">
<path d="M8.12988 3.05078C8.84082 3.05078 9.44238 3.15788 9.93457 3.37207C10.4268 3.58626 10.7959 3.88477 11.042 4.26758C11.2881 4.64583 11.4111 5.08789 11.4111 5.59375C11.4111 6.1543 11.2471 6.61686 10.9189 6.98145C10.5954 7.34603 10.167 7.58984 9.63379 7.71289V7.80859C10.0166 7.82682 10.3721 7.9362 10.7002 8.13672C11.0329 8.33724 11.2995 8.61751 11.5 8.97754C11.7051 9.33301 11.8076 9.74544 11.8076 10.2148C11.8076 10.748 11.6755 11.2197 11.4111 11.6299C11.1514 12.04 10.764 12.3636 10.249 12.6006C9.73861 12.833 9.11881 12.9492 8.38965 12.9492H4.19238V3.05078H8.12988ZM6.24316 11.2539H7.97949C8.55371 11.2539 8.97982 11.1468 9.25781 10.9326C9.53581 10.7139 9.6748 10.4108 9.6748 10.0234C9.6748 9.74544 9.60645 9.49935 9.46973 9.28516C9.33756 9.07096 9.14844 8.90462 8.90234 8.78613C8.65625 8.66309 8.36686 8.60156 8.03418 8.60156H6.24316V11.2539ZM6.24316 7.19336H7.8291C8.11621 7.19336 8.3737 7.14323 8.60156 7.04297C8.82943 6.93815 9.00716 6.79004 9.13477 6.59863C9.26693 6.40723 9.33301 6.18164 9.33301 5.92188C9.33301 5.55729 9.20312 5.26562 8.94336 5.04688C8.68815 4.82812 8.3304 4.71875 7.87012 4.71875H6.24316V7.19336Z" fill="currentColor"/>
</g>
</svg>
