<svg width="16" height="16" viewBox="0 0 16 16" fill="none" xmlns="http://www.w3.org/2000/svg">
<g opacity="0.8">
<path d="M5.54102 4.48047H4.44141V7.77051H7.32129V4.48047H6.2207V4.23047H9.76074V4.48047H8.66113V11.5205H9.76074V11.7705H6.2207V11.5205H7.32129V8.02051H4.44141V11.5205H5.54102V11.7705H2.00098V11.5205H3.10156V4.48047H2.00098V4.23047H5.54102V4.48047ZM12.1426 5.91406C12.3665 5.91406 12.588 5.94677 12.8066 6.01074C13.0253 6.06941 13.2259 6.15956 13.4072 6.28223C13.5885 6.40488 13.7322 6.56292 13.8389 6.75488C13.9454 6.9415 13.999 7.16555 13.999 7.42676C13.999 7.55469 13.9772 7.69602 13.9346 7.85059C13.8919 7.99988 13.8091 8.16541 13.6865 8.34668C13.5692 8.52256 13.3911 8.71751 13.1514 8.93066L10.8711 10.9707V11.0029H13.3105C13.4384 11.0029 13.5371 10.986 13.6064 10.9541C13.6758 10.9221 13.7243 10.8478 13.751 10.7305C13.7829 10.6079 13.7988 10.4213 13.7988 10.1709H13.999V11.7705H10.1592V11.1543L11.8789 9.55469C12.1508 9.2988 12.3614 9.07475 12.5107 8.88281C12.6654 8.68548 12.7724 8.49579 12.8311 8.31445C12.895 8.12781 12.9268 7.9222 12.9268 7.69824C12.9267 7.2557 12.8306 6.90882 12.6387 6.6582C12.452 6.40241 12.177 6.27441 11.8145 6.27441C11.5961 6.27447 11.3935 6.31963 11.207 6.41016C11.0257 6.49549 10.8786 6.60495 10.7666 6.73828C10.6547 6.87149 10.5987 7.01293 10.5986 7.16211C10.5986 7.22068 10.6071 7.26087 10.623 7.28223C10.6444 7.30356 10.6711 7.31445 10.7031 7.31445C10.7564 7.31441 10.8125 7.29855 10.8711 7.2666C10.9297 7.23464 11.0101 7.21875 11.1113 7.21875C11.2443 7.21883 11.3508 7.2557 11.4307 7.33008C11.516 7.40474 11.5586 7.52014 11.5586 7.6748C11.5585 7.85598 11.505 7.98645 11.3984 8.06641C11.2918 8.14095 11.1639 8.17871 11.0146 8.17871C10.8549 8.17867 10.7218 8.13842 10.6152 8.05859C10.5139 7.97859 10.4361 7.87409 10.3828 7.74609C10.3349 7.6182 10.3105 7.47926 10.3105 7.33008C10.3106 7.02627 10.3993 6.7704 10.5752 6.5625C10.7512 6.34924 10.9776 6.18867 11.2549 6.08203C11.5374 5.97011 11.8334 5.9141 12.1426 5.91406Z" fill="currentColor"/>
</g>
</svg>
