<svg width="16" height="16" viewBox="0 0 16 16" fill="none" xmlns="http://www.w3.org/2000/svg">
<g opacity="0.8">
<path d="M11.9429 5.86719C12.3002 5.86719 12.6043 5.92909 12.855 6.05176C13.1108 6.17436 13.3056 6.33405 13.439 6.53125C13.5723 6.72858 13.6392 6.94006 13.6392 7.16406C13.6391 7.4039 13.5638 7.62806 13.4146 7.83594C13.2706 8.03836 13.0657 8.20911 12.7993 8.34766C12.6559 8.41937 12.4979 8.47559 12.3267 8.51953V8.57129C12.6573 8.60862 12.9456 8.70226 13.1909 8.85156C13.4415 8.99553 13.6362 9.1769 13.7749 9.39551C13.9136 9.61417 13.9829 9.85736 13.9829 10.124C13.9828 10.4117 13.895 10.6862 13.7192 10.9473C13.5486 11.2033 13.3004 11.4147 12.9751 11.5801C12.6499 11.74 12.2578 11.8193 11.7993 11.8193C11.4633 11.8193 11.1666 11.7743 10.9106 11.6836C10.6601 11.5876 10.4628 11.4597 10.3188 11.2998C10.1748 11.1345 10.103 10.9473 10.103 10.7393C10.1031 10.5634 10.1507 10.4245 10.2466 10.3232C10.3478 10.2167 10.4734 10.1642 10.6226 10.1641C10.7186 10.1641 10.8047 10.1849 10.8794 10.2275C10.9592 10.2649 11.0204 10.321 11.063 10.3955C11.111 10.4648 11.1352 10.5476 11.1353 10.6436C11.1353 10.7289 11.1159 10.7958 11.0786 10.8438C11.0467 10.8916 11.0098 10.9319 10.9673 10.9639C10.9247 10.9958 10.8845 11.0276 10.8472 11.0596C10.8152 11.0862 10.7993 11.1289 10.7993 11.1875C10.7993 11.2835 10.8494 11.3613 10.9507 11.4199C11.0573 11.4732 11.1802 11.5134 11.3188 11.54C11.4627 11.5667 11.5907 11.58 11.7026 11.5801C12.0758 11.5801 12.3618 11.4546 12.5591 11.2041C12.7617 10.9535 12.8627 10.5932 12.8628 10.124C12.8628 9.68136 12.7617 9.34209 12.5591 9.10742C12.3817 8.90209 12.1 8.78637 11.7144 8.76074L11.5435 8.75586H10.9194V8.51562H11.3911C11.8231 8.5156 12.1322 8.39525 12.3188 8.15527C12.5054 7.90995 12.5991 7.57404 12.5991 7.14746C12.5991 6.87554 12.5639 6.66493 12.4946 6.51562C12.4306 6.36637 12.3345 6.26275 12.2065 6.2041C12.084 6.14019 11.9351 6.10745 11.7593 6.10742C11.5621 6.10742 11.3965 6.13672 11.2632 6.19531C11.1299 6.25396 11.063 6.33425 11.063 6.43555C11.063 6.49421 11.0848 6.54274 11.1274 6.58008C11.17 6.61733 11.2129 6.66268 11.2554 6.71582C11.2978 6.7638 11.3188 6.83841 11.3188 6.93945C11.3188 7.07812 11.2738 7.18262 11.1831 7.25195C11.0925 7.31587 10.9938 7.34762 10.8872 7.34766C10.7541 7.34766 10.6394 7.29979 10.5435 7.2041C10.4528 7.1081 10.4067 6.99023 10.4067 6.85156C10.4068 6.69697 10.4653 6.54477 10.5825 6.39551C10.7052 6.2462 10.8816 6.12086 11.1108 6.01953C11.3401 5.91821 11.6176 5.8672 11.9429 5.86719ZM5.55713 4.43359H4.45752V7.72363H7.3374V4.43359H6.23682V4.18359H9.77686V4.43359H8.67725V11.4736H9.77686V11.7236H6.23682V11.4736H7.3374V7.97363H4.45752V11.4736H5.55713V11.7236H2.01709V11.4736H3.11768V4.43359H2.01709V4.18359H5.55713V4.43359Z" fill="currentColor"/>
</g>
</svg>
