<svg width="16" height="16" viewBox="0 0 16 16" fill="none" xmlns="http://www.w3.org/2000/svg">
<g opacity="0.8">
<path d="M5.34131 4.48047H4.2417V7.77051H7.12158V4.48047H6.021V4.23047H9.56104V4.48047H8.46143V11.5205H9.56104V11.7705H6.021V11.5205H7.12158V8.02051H4.2417V11.5205H5.34131V11.7705H1.80127V11.5205H2.90186V4.48047H1.80127V4.23047H5.34131V4.48047ZM13.1274 9.9541H13.9907V9.32227H14.1987V10.8262H13.9907V10.1709H13.1353V11.5703H13.8149V11.7705H11.3911V11.5703H12.1831V10.1709H9.82275V9.94629L12.5435 5.91406H13.1274V9.9541ZM10.1274 9.92285V9.9541H12.1753V6.97852H12.1431L10.1274 9.92285Z" fill="currentColor"/>
</g>
</svg>
