<svg width="16" height="16" viewBox="0 0 16 16" fill="none" xmlns="http://www.w3.org/2000/svg">
<path d="M4.5 11.5C3.53167 11.5 2.70637 11.1586 2.0241 10.4759C1.34183 9.79316 1.00047 8.96786 1 8C0.999534 7.03213 1.3409 6.20683 2.0241 5.5241C2.7073 4.84137 3.5326 4.5 4.5 4.5H6.6C6.79833 4.5 6.9647 4.5672 7.0991 4.7016C7.2335 4.836 7.30047 5.00213 7.3 5.2C7.29953 5.39787 7.23233 5.56423 7.0984 5.6991C6.96447 5.83397 6.79833 5.90093 6.6 5.9H4.5C3.91667 5.9 3.42083 6.10416 3.0125 6.5125C2.60417 6.92083 2.4 7.41666 2.4 8C2.4 8.58333 2.60417 9.07916 3.0125 9.48749C3.42083 9.89583 3.91667 10.1 4.5 10.1H6.6C6.79833 10.1 6.9647 10.1672 7.0991 10.3016C7.2335 10.436 7.30047 10.6021 7.3 10.8C7.29953 10.9979 7.23233 11.1642 7.0984 11.2991C6.96447 11.434 6.79833 11.5009 6.6 11.5H4.5ZM5.9 8.69999C5.70167 8.69999 5.53553 8.63279 5.4016 8.49839C5.26767 8.36399 5.20047 8.19786 5.2 8C5.19953 7.80213 5.26673 7.636 5.4016 7.5016C5.53647 7.3672 5.7026 7.3 5.9 7.3H10.1C10.2983 7.3 10.4647 7.3672 10.5991 7.5016C10.7335 7.636 10.8005 7.80213 10.8 8C10.7995 8.19786 10.7323 8.36423 10.5984 8.49909C10.4645 8.63396 10.2983 8.70093 10.1 8.69999H5.9ZM9.4 11.5C9.20167 11.5 9.03553 11.4328 8.9016 11.2984C8.76767 11.164 8.70047 10.9979 8.7 10.8C8.69953 10.6021 8.76673 10.436 8.9016 10.3016C9.03647 10.1672 9.2026 10.1 9.4 10.1H11.5C12.0833 10.1 12.5792 9.89583 12.9875 9.48749C13.3958 9.07916 13.6 8.58333 13.6 8C13.6 7.41666 13.3958 6.92083 12.9875 6.5125C12.5792 6.10416 12.0833 5.9 11.5 5.9H9.4C9.20167 5.9 9.03553 5.8328 8.9016 5.6984C8.76767 5.564 8.70047 5.39787 8.7 5.2C8.69953 5.00213 8.76673 4.836 8.9016 4.7016C9.03647 4.5672 9.2026 4.5 9.4 4.5H11.5C12.4683 4.5 13.2939 4.84137 13.9766 5.5241C14.6593 6.20683 15.0005 7.03213 15 8C14.9995 8.96786 14.6582 9.79339 13.9759 10.4766C13.2936 11.1598 12.4683 11.5009 11.5 11.5H9.4Z"  fill="currentColor"/>
</svg>
