<svg width="16" height="16" viewBox="0 0 16 16" fill="none" xmlns="http://www.w3.org/2000/svg">
<path d="M7.41406 6.95703C7.41406 8.12886 7.0937 9.15236 6.45312 10.0273C5.82812 10.9023 4.84376 11.4492 3.5 11.668V9.95703C4.28125 9.86328 4.78906 9.61328 5.02344 9.20703C5.23752 8.85907 5.35894 8.4139 5.38965 7.87109H3.54688V4.33203H7.41406V6.95703ZM12.5 6.95703C12.5 8.12887 12.1796 9.15236 11.5391 10.0273C10.9141 10.9023 9.92969 11.4492 8.58594 11.668V9.95703C9.36719 9.86328 9.875 9.61328 10.1094 9.20703C10.3235 8.85906 10.4449 8.4139 10.4756 7.87109H8.63281V4.33203H12.5V6.95703Z"  fill="currentColor"/>
</svg>
