<svg width="24" height="24" viewBox="0 0 24 24" fill="none" xmlns="http://www.w3.org/2000/svg">
<path d="M12.0723 3.94633C14.6727 1.34598 18.8888 1.34605 21.4893 3.94633C24.0897 6.54677 24.0897 10.7629 21.4893 13.3633L20.7481 14.1045C20.736 14.1179 20.7238 14.1317 20.711 14.1446L12.708 22.1475C12.5205 22.335 12.2661 22.4404 12.001 22.4405H11.999C11.7339 22.4405 11.4796 22.3349 11.292 22.1475L3.28908 14.1446C3.27618 14.1317 3.26303 14.1179 3.25099 14.1045L2.50978 13.3633C-0.0904232 10.7628 -0.0905749 6.54671 2.50978 3.94633C5.11016 1.34595 9.32629 1.34612 11.9268 3.94633L12 4.01957L12.0723 3.94633Z" fill="#19398C"/>
</svg>
