<svg width="24" height="24" viewBox="0 0 24 24" fill="currentColor" xmlns="http://www.w3.org/2000/svg">
<path fill-rule="evenodd" clip-rule="evenodd" d="M10.5133 5.36066C8.69389 3.54124 5.74403 3.54124 3.92462 5.36066C2.1052 7.18007 2.10521 10.1299 3.92462 11.9493L4.70433 12.729C4.71707 12.7418 4.72944 12.7548 4.74142 12.7682L12.0001 20.0269L19.2585 12.7685C19.2706 12.7551 19.283 12.7419 19.2959 12.729L20.0756 11.9493C21.895 10.1299 21.895 7.18007 20.0756 5.36066C18.2562 3.54124 15.3063 3.54124 13.4869 5.36066L12.7072 6.14036C12.3167 6.53089 11.6835 6.53089 11.293 6.14036L10.5133 5.36066ZM20.7486 14.1048C20.7365 14.1182 20.724 14.1314 20.7112 14.1443L12.7083 22.1472C12.5207 22.3348 12.2662 22.4401 12.0009 22.4401C12.0007 22.4401 12.0012 22.4401 12.0009 22.4401C12.0007 22.4401 11.9996 22.4401 11.9993 22.4401C11.734 22.4401 11.4796 22.3348 11.292 22.1472L3.28909 14.1443C3.27619 14.1314 3.26372 14.1182 3.25167 14.1048L2.51041 13.3636C-0.0900556 10.7631 -0.0900594 6.54691 2.51041 3.94644C5.11087 1.34598 9.32705 1.34598 11.9275 3.94644L12.0001 4.01904L12.0727 3.94644C14.6732 1.34598 18.8894 1.34598 21.4898 3.94644C24.0903 6.54691 24.0903 10.7631 21.4898 13.3636L20.7486 14.1048Z"/>
</svg>
