<svg width="41" height="41" viewBox="0 0 41 41" fill="none" xmlns="http://www.w3.org/2000/svg">
<path fill-rule="evenodd" clip-rule="evenodd" d="M21.1748 7.16536C14.2757 7.16536 8.6829 12.7582 8.6829 19.6573C8.6829 21.6542 9.15022 23.5371 9.97992 25.2071C10.1759 25.6017 10.2078 26.0578 10.0685 26.4757L7.9537 32.8198L14.3619 30.7535C14.7762 30.6199 15.2264 30.6537 15.6161 30.8478C17.2883 31.6802 19.1744 32.1492 21.1748 32.1492C28.0739 32.1492 33.6667 26.5564 33.6667 19.6573C33.6667 12.7582 28.0739 7.16536 21.1748 7.16536ZM5.34957 19.6573C5.34957 10.9172 12.4348 3.83203 21.1748 3.83203C29.9149 3.83203 37.0001 10.9172 37.0001 19.6573C37.0001 28.3973 29.9149 35.4825 21.1748 35.4825C18.8939 35.4825 16.722 34.999 14.7594 34.1277L5.84274 37.0028C5.24472 37.1957 4.58908 37.0358 4.14697 36.5893C3.70486 36.1428 3.55142 35.4856 3.75013 34.8895L6.6957 26.0531C5.8299 24.0956 5.34957 21.9306 5.34957 19.6573Z" fill="#19398C"/>
</svg>
