<svg width="41" height="41" viewBox="0 0 41 41" fill="none" xmlns="http://www.w3.org/2000/svg">
<path fill-rule="evenodd" clip-rule="evenodd" d="M32 2.45312C31.1621 2.45312 30.3324 2.61817 29.5582 2.93883C28.7841 3.25949 28.0807 3.72949 27.4882 4.32199L4.98819 26.822C4.7831 27.0271 4.63508 27.2822 4.55877 27.562L2.05877 36.7286C1.9014 37.3057 2.06528 37.9228 2.48819 38.3457C2.91111 38.7686 3.52821 38.9325 4.10523 38.7751L13.2719 36.2751C13.5517 36.1988 13.8068 36.0508 14.0119 35.8457L36.5119 13.3457C37.1044 12.7532 37.5744 12.0498 37.895 11.2756C38.2157 10.5015 38.3807 9.67176 38.3807 8.83384C38.3807 7.99591 38.2157 7.16619 37.895 6.39204C37.5744 5.6179 37.1044 4.91449 36.5119 4.32199C35.9194 3.72949 35.216 3.25949 34.4418 2.93883C33.6677 2.61817 32.838 2.45312 32 2.45312ZM30.8339 6.01843C31.2036 5.86528 31.5998 5.78646 32 5.78646C32.4002 5.78646 32.7965 5.86528 33.1662 6.01843C33.5359 6.17157 33.8719 6.39604 34.1549 6.67901C34.4378 6.96199 34.6623 7.29793 34.8154 7.66766C34.9686 8.03738 35.0474 8.43364 35.0474 8.83384C35.0474 9.23403 34.9686 9.6303 34.8154 10C34.6623 10.3697 34.4378 10.7057 34.1549 10.9887L11.9678 33.1757L6.04207 34.7918L7.65819 28.866L29.8452 6.67901C30.1282 6.39604 30.4641 6.17157 30.8339 6.01843Z" fill="#C2D3FF"/>
</svg>
