<svg width="41" height="41" viewBox="0 0 41 41" fill="none" xmlns="http://www.w3.org/2000/svg">
<path fill-rule="evenodd" clip-rule="evenodd" d="M21.8279 3.09693C21.5471 2.52809 20.9677 2.16797 20.3334 2.16797C19.699 2.16797 19.1197 2.52809 18.8389 3.09693L14.0763 12.7454L3.42567 14.3022C2.79807 14.3939 2.27693 14.8339 2.08131 15.4372C1.88568 16.0406 2.04946 16.7027 2.50383 17.1452L10.2092 24.6502L8.3907 35.2529C8.28345 35.8782 8.54053 36.5102 9.05382 36.8831C9.56712 37.2559 10.2476 37.3051 10.8091 37.0098L20.3334 32.001L29.8576 37.0098C30.4192 37.3051 31.0996 37.2559 31.6129 36.8831C32.1262 36.5102 32.3833 35.8782 32.2761 35.2529L30.4576 24.6502L38.1629 17.1452C38.6173 16.7027 38.7811 16.0406 38.5855 15.4372C38.3898 14.8339 37.8687 14.3939 37.2411 14.3022L26.5905 12.7454L21.8279 3.09693ZM16.6779 15.0057L20.3334 7.60006L23.9889 15.0057C24.2314 15.4971 24.7001 15.8379 25.2423 15.9171L33.4194 17.1123L27.5038 22.874C27.1107 23.2569 26.9313 23.8088 27.024 24.3497L28.4197 32.4874L21.1091 28.6428C20.6235 28.3875 20.0433 28.3875 19.5576 28.6428L12.247 32.4874L13.6427 24.3497C13.7355 23.8088 13.5561 23.2569 13.1629 22.874L7.2474 17.1123L15.4244 15.9171C15.9667 15.8379 16.4353 15.4971 16.6779 15.0057Z" fill="#19398C"/>
</svg>
