<svg width="16" height="16" viewBox="0 0 16 16" fill="none" xmlns="http://www.w3.org/2000/svg">
<path d="M8.47157 1.52729C8.21122 1.26694 7.78911 1.26694 7.52876 1.52729L4.19543 4.86063C3.93508 5.12098 3.93508 5.54309 4.19543 5.80344C4.45577 6.06379 4.87788 6.06379 5.13823 5.80344L7.3335 3.60817V10.0463C7.3335 10.4145 7.63197 10.713 8.00016 10.713C8.36835 10.713 8.66683 10.4145 8.66683 10.0463V3.60817L10.8621 5.80344C11.1224 6.06379 11.5446 6.06379 11.8049 5.80344C12.0653 5.54309 12.0653 5.12098 11.8049 4.86063L8.47157 1.52729Z" fill="#6C7582"/>
<path d="M2.66683 9.9987C2.66683 9.63051 2.36835 9.33203 2.00016 9.33203C1.63197 9.33203 1.3335 9.63051 1.3335 9.9987V12.6654C1.3335 13.1958 1.54421 13.7045 1.91928 14.0796C2.29436 14.4547 2.80306 14.6654 3.3335 14.6654H12.6668C13.1973 14.6654 13.706 14.4547 14.081 14.0796C14.4561 13.7045 14.6668 13.1958 14.6668 12.6654V9.9987C14.6668 9.63051 14.3684 9.33203 14.0002 9.33203C13.632 9.33203 13.3335 9.63051 13.3335 9.9987V12.6654C13.3335 12.8422 13.2633 13.0117 13.1382 13.1368C13.0132 13.2618 12.8436 13.332 12.6668 13.332H3.3335C3.15669 13.332 2.98712 13.2618 2.86209 13.1368C2.73707 13.0117 2.66683 12.8422 2.66683 12.6654V9.9987Z" fill="#6C7582"/>
</svg>
