<svg width="17" height="17" viewBox="0 0 17 17" fill="none" xmlns="http://www.w3.org/2000/svg">
<path fill-rule="evenodd" clip-rule="evenodd" d="M2.92468 3.13424C2.71315 2.95525 2.37018 2.95525 2.15865 3.13424C1.94712 3.31323 1.94712 3.60343 2.15865 3.78242L4.47459 5.74207C3.49483 6.45568 2.67727 7.31681 2.06437 8.28329C1.98116 8.41452 1.97847 8.57177 2.05719 8.70498L2.54167 8.5C2.05719 8.70498 2.05762 8.70571 2.05762 8.70571L2.05825 8.70677L2.06012 8.7099L2.06627 8.72008C2.07143 8.72859 2.07873 8.74048 2.08816 8.75555C2.107 8.78568 2.13435 8.82852 2.17007 8.88226C2.24147 8.98967 2.34658 9.14097 2.48443 9.32158C2.75945 9.6819 3.16828 10.1635 3.70379 10.6468C4.76492 11.6046 6.38776 12.625 8.49998 12.625L8.50884 12.6249C9.62924 12.6094 10.7188 12.3287 11.6558 11.8185L14.0753 13.8658C14.2868 14.0447 14.6298 14.0447 14.8413 13.8658C15.0528 13.6868 15.0528 13.3966 14.8413 13.2176L2.92468 3.13424ZM3.16056 8.50145C3.70589 7.70166 4.41058 6.98813 5.243 6.39227L6.62368 7.56054C6.56977 7.6333 6.52185 7.70934 6.48036 7.78814C6.36193 8.01303 6.29826 8.2558 6.29312 8.50196C6.28799 8.74812 6.34151 8.99264 6.45048 9.22092C6.55945 9.4492 6.72164 9.65657 6.92739 9.83066C7.13313 10.0048 7.37821 10.142 7.64799 10.2342C7.91778 10.3264 8.20675 10.3717 8.49767 10.3674C8.78859 10.363 9.07549 10.3091 9.34127 10.2089C9.4344 10.1738 9.52427 10.1333 9.61026 10.0877L10.8678 11.1517C10.1486 11.5032 9.33269 11.6961 8.49556 11.7083C6.81818 11.7069 5.46338 10.8947 4.49412 10.0199C4.014 9.58653 3.64419 9.15144 3.39447 8.82426C3.29779 8.69759 3.21964 8.5878 3.16056 8.50145ZM7.37629 8.51813C7.37823 8.42483 7.397 8.3325 7.43176 8.2443L8.80218 9.40389C8.69794 9.4333 8.58883 9.44918 8.47856 9.45083C8.3331 9.453 8.18861 9.43036 8.05372 9.38425C7.91883 9.33815 7.79629 9.26953 7.69342 9.18248C7.59055 9.09544 7.50945 8.99175 7.45496 8.87761C7.40048 8.76347 7.37372 8.64121 7.37629 8.51813Z" fill="#2D3648"/>
<path d="M13.8327 8.5092C12.3034 6.37595 10.2688 4.94176 7.49725 5.37059C7.20298 5.41612 6.9208 5.25118 6.86699 5.00218C6.81318 4.75318 7.00811 4.51441 7.30239 4.46888C10.8524 3.9196 13.288 5.8991 14.9011 8.23598C15.0151 8.37305 15.0357 8.55818 14.9359 8.71607C14.5894 9.26469 14.176 9.7812 13.7027 10.2572C13.5101 10.4509 13.1684 10.4758 12.9395 10.3128C12.7106 10.1498 12.6812 9.86068 12.8738 9.66699C13.2332 9.30557 13.554 8.91812 13.8327 8.5092Z" fill="#2D3648"/>
</svg>
