<svg width="17" height="17" viewBox="0 0 17 17" fill="none" xmlns="http://www.w3.org/2000/svg">
<path fill-rule="evenodd" clip-rule="evenodd" d="M8.50005 6.05556C7.11931 6.05556 6 7.14997 6 8.5C6 9.85003 7.11931 10.9444 8.50005 10.9444C9.8808 10.9444 11.0001 9.85003 11.0001 8.5C11.0001 7.14997 9.8808 6.05556 8.50005 6.05556ZM7.25003 8.5C7.25003 7.82499 7.80968 7.27778 8.50005 7.27778C9.19043 7.27778 9.75008 7.82499 9.75008 8.5C9.75008 9.17501 9.19043 9.72222 8.50005 9.72222C7.80968 9.72222 7.25003 9.17501 7.25003 8.5Z" fill="#2D3648"/>
<path fill-rule="evenodd" clip-rule="evenodd" d="M15.934 8.22627C15.9341 8.2265 15.9342 8.2267 15.3752 8.5C15.9342 8.7733 15.9341 8.7735 15.934 8.77373L15.933 8.77569L15.9308 8.77986L15.9238 8.79344C15.9178 8.80478 15.9094 8.82064 15.8985 8.84073C15.8768 8.88091 15.8452 8.93803 15.804 9.00967C15.7216 9.15289 15.6003 9.35463 15.4412 9.59543C15.1239 10.0759 14.6522 10.718 14.0343 11.3624C12.8098 12.6394 10.9373 14 8.50005 14C6.06281 14 4.19026 12.6394 2.96585 11.3624C2.34794 10.718 1.8762 10.0759 1.55886 9.59543C1.39981 9.35463 1.27852 9.15289 1.19613 9.00967C1.15491 8.93803 1.12336 8.88091 1.10161 8.84073C1.09074 8.82064 1.08231 8.80478 1.07635 8.79344L1.06926 8.77986L1.0671 8.77569L1.06637 8.77427C1.06626 8.77404 1.06587 8.7733 1.6249 8.5C1.06587 8.2267 1.06598 8.2265 1.06609 8.22627L1.0671 8.22431L1.06926 8.22014L1.07635 8.20656C1.08231 8.19522 1.09074 8.17936 1.10161 8.15927C1.12336 8.11909 1.15491 8.06197 1.19613 7.99033C1.27852 7.84711 1.39981 7.64537 1.55886 7.40457C1.8762 6.92414 2.34794 6.28203 2.96585 5.63759C4.19026 4.3606 6.06281 3 8.50005 3C10.9373 3 12.8098 4.3606 14.0343 5.63759C14.6522 6.28203 15.1239 6.92414 15.4412 7.40457C15.6003 7.64537 15.7216 7.84711 15.804 7.99033C15.8452 8.06197 15.8768 8.11909 15.8985 8.15927C15.9094 8.17936 15.9178 8.19522 15.9238 8.20656L15.9308 8.22014L15.933 8.22431L15.934 8.22627ZM2.60893 8.93235C2.49675 8.7625 2.40619 8.61542 2.33788 8.5C2.40619 8.38458 2.49675 8.2375 2.60893 8.06765C2.89708 7.63142 3.32379 7.0513 3.87779 6.47352C4.99718 5.30606 6.5622 4.22222 8.50005 4.22222C10.4379 4.22222 12.0029 5.30606 13.1223 6.47352C13.6763 7.0513 14.103 7.63142 14.3912 8.06765C14.5034 8.2375 14.5939 8.38458 14.6622 8.5C14.5939 8.61542 14.5034 8.7625 14.3912 8.93235C14.103 9.36858 13.6763 9.9487 13.1223 10.5265C12.0029 11.6939 10.4379 12.7778 8.50005 12.7778C6.5622 12.7778 4.99718 11.6939 3.87779 10.5265C3.32379 9.9487 2.89708 9.36858 2.60893 8.93235Z" fill="#2D3648"/>
<path d="M15.3752 8.5L15.934 8.22627C16.022 8.39832 16.022 8.60168 15.934 8.77373L15.3752 8.5Z" fill="#2D3648"/>
<path d="M1.06609 8.22627L1.6249 8.5L1.06587 8.7733C0.977895 8.60125 0.978115 8.39832 1.06609 8.22627Z" fill="#2D3648"/>
</svg>
