<svg width="17" height="17" viewBox="0 0 17 17" fill="none" xmlns="http://www.w3.org/2000/svg">
<path d="M8.5 1.5C4.63438 1.5 1.5 4.63438 1.5 8.5C1.5 12.3656 4.63438 15.5 8.5 15.5C12.3656 15.5 15.5 12.3656 15.5 8.5C15.5 4.63438 12.3656 1.5 8.5 1.5ZM11.0844 11.1594L10.0531 11.1547L8.5 9.30313L6.94844 11.1531L5.91563 11.1578C5.84688 11.1578 5.79063 11.1031 5.79063 11.0328C5.79063 11.0031 5.80156 10.975 5.82031 10.9516L7.85313 8.52969L5.82031 6.10938C5.80143 6.08647 5.79096 6.0578 5.79063 6.02812C5.79063 5.95937 5.84688 5.90312 5.91563 5.90312L6.94844 5.90781L8.5 7.75938L10.0516 5.90938L11.0828 5.90469C11.1516 5.90469 11.2078 5.95937 11.2078 6.02969C11.2078 6.05937 11.1969 6.0875 11.1781 6.11094L9.14844 8.53125L11.1797 10.9531C11.1984 10.9766 11.2094 11.0047 11.2094 11.0344C11.2094 11.1031 11.1531 11.1594 11.0844 11.1594Z" fill="#A6AEB6"/>
</svg>
