<svg width="52" height="52" viewBox="0 0 52 52" fill="none" xmlns="http://www.w3.org/2000/svg">
<path d="M30.3334 23.8333C28.6095 23.8333 26.9562 23.1485 25.7372 21.9295C24.5182 20.7105 23.8334 19.0572 23.8334 17.3333V8.66667H15.1667C14.0175 8.66667 12.9153 9.12321 12.1026 9.93587C11.29 10.7485 10.8334 11.8507 10.8334 13V41.1667C10.8334 42.3159 11.29 43.4181 12.1026 44.2308C12.9153 45.0435 14.0175 45.5 15.1667 45.5H34.6667C35.816 45.5 36.9182 45.0435 37.7309 44.2308C38.5435 43.4181 39.0001 42.3159 39.0001 41.1667V23.8333H30.3334ZM26.0001 17.3333C26.0001 18.4826 26.4566 19.5848 27.2693 20.3975C28.0819 21.2101 29.1841 21.6667 30.3334 21.6667H38.1117L26.0001 9.555V17.3333ZM15.1667 6.5H26.0001L41.1667 21.6667V41.1667C41.1667 42.8906 40.4819 44.5439 39.2629 45.7629C38.044 46.9818 36.3907 47.6667 34.6667 47.6667H15.1667C13.4428 47.6667 11.7895 46.9818 10.5706 45.7629C9.35157 44.5439 8.66675 42.8906 8.66675 41.1667V13C8.66675 11.2761 9.35157 9.62279 10.5706 8.40381C11.7895 7.18482 13.4428 6.5 15.1667 6.5Z" fill="#8A94A0"/>
</svg>
