<svg width="17" height="16" viewBox="0 0 17 16" fill="none" xmlns="http://www.w3.org/2000/svg">
<path d="M8.97132 1.52729C8.71097 1.26694 8.28886 1.26694 8.02851 1.52729L4.69518 4.86063C4.43483 5.12098 4.43483 5.54309 4.69518 5.80344C4.95553 6.06379 5.37764 6.06379 5.63799 5.80344L7.83325 3.60817V10.0463C7.83325 10.4145 8.13173 10.713 8.49992 10.713C8.86811 10.713 9.16659 10.4145 9.16659 10.0463V3.60817L11.3618 5.80344C11.6222 6.06379 12.0443 6.06379 12.3047 5.80344C12.565 5.54309 12.565 5.12098 12.3047 4.86063L8.97132 1.52729Z" fill="#6C7582"/>
<path d="M3.16659 9.9987C3.16659 9.63051 2.86811 9.33203 2.49992 9.33203C2.13173 9.33203 1.83325 9.63051 1.83325 9.9987V12.6654C1.83325 13.1958 2.04397 13.7045 2.41904 14.0796C2.79411 14.4547 3.30282 14.6654 3.83325 14.6654H13.1666C13.697 14.6654 14.2057 14.4547 14.5808 14.0796C14.9559 13.7045 15.1666 13.1958 15.1666 12.6654V9.9987C15.1666 9.63051 14.8681 9.33203 14.4999 9.33203C14.1317 9.33203 13.8333 9.63051 13.8333 9.9987V12.6654C13.8333 12.8422 13.763 13.0117 13.638 13.1368C13.513 13.2618 13.3434 13.332 13.1666 13.332H3.83325C3.65644 13.332 3.48687 13.2618 3.36185 13.1368C3.23682 13.0117 3.16659 12.8422 3.16659 12.6654V9.9987Z" fill="currentColor"/>
</svg>
