<svg width="20" height="20" viewBox="0 0 20 20" fill="none" xmlns="http://www.w3.org/2000/svg">
<path fill-rule="evenodd" clip-rule="evenodd" d="M2.91667 5.83464C2.91667 3.53345 4.78215 1.66797 7.08333 1.66797C9.38452 1.66797 11.25 3.53345 11.25 5.83464C11.25 8.13582 9.38452 10.0013 7.08333 10.0013C4.78215 10.0013 2.91667 8.13582 2.91667 5.83464ZM7.08333 3.33464C5.70262 3.33464 4.58333 4.45392 4.58333 5.83464C4.58333 7.21535 5.70262 8.33464 7.08333 8.33464C8.46405 8.33464 9.58333 7.21535 9.58333 5.83464C9.58333 4.45392 8.46405 3.33464 7.08333 3.33464Z" fill="#A6AEB6"/>
<path d="M1.22039 12.8884C2.00179 12.107 3.0616 11.668 4.16667 11.668H10C11.1051 11.668 12.1649 12.107 12.9463 12.8884C13.7277 13.6698 14.1667 14.7296 14.1667 15.8346V17.5013C14.1667 17.9615 13.7936 18.3346 13.3333 18.3346C12.8731 18.3346 12.5 17.9615 12.5 17.5013V15.8346C12.5 15.1716 12.2366 14.5357 11.7678 14.0669C11.2989 13.598 10.663 13.3346 10 13.3346H4.16667C3.50363 13.3346 2.86774 13.598 2.3989 14.0669C1.93006 14.5357 1.66667 15.1716 1.66667 15.8346V17.5013C1.66667 17.9615 1.29357 18.3346 0.833333 18.3346C0.373096 18.3346 0 17.9615 0 17.5013V15.8346C0 14.7296 0.438987 13.6698 1.22039 12.8884Z" fill="#A6AEB6"/>
<path d="M19.7559 8.09056C20.0814 7.76512 20.0814 7.23748 19.7559 6.91205C19.4305 6.58661 18.9028 6.58661 18.5774 6.91205L15.8333 9.65612L14.7559 8.57871C14.4305 8.25328 13.9028 8.25328 13.5774 8.57871C13.252 8.90415 13.252 9.43179 13.5774 9.75723L15.2441 11.4239C15.5695 11.7493 16.0972 11.7493 16.4226 11.4239L19.7559 8.09056Z" fill="#A6AEB6"/>
</svg>
