<svg width="40" height="40" viewBox="0 0 40 40" fill="none" xmlns="http://www.w3.org/2000/svg">
<rect width="40" height="40" rx="20" fill="#FFF6E3"/>
<path d="M28.19 22.0608L27.06 20.1808C26.81 19.7708 26.59 18.9808 26.59 18.5008V16.6308C26.59 13.0008 23.64 10.0508 20.02 10.0508C16.39 10.0608 13.44 13.0008 13.44 16.6308V18.4908C13.44 18.9708 13.22 19.7608 12.98 20.1708L11.85 22.0508C11.42 22.7808 11.32 23.6108 11.59 24.3308C11.86 25.0608 12.47 25.6408 13.27 25.9008C14.35 26.2608 15.44 26.5208 16.55 26.7108C16.66 26.7308 16.77 26.7408 16.88 26.7608C17.02 26.7808 17.17 26.8008 17.32 26.8208C17.58 26.8608 17.84 26.8908 18.11 26.9108C18.74 26.9708 19.38 27.0008 20.02 27.0008C20.65 27.0008 21.28 26.9708 21.9 26.9108C22.13 26.8908 22.36 26.8708 22.58 26.8408C22.76 26.8208 22.94 26.8008 23.12 26.7708C23.23 26.7608 23.34 26.7408 23.45 26.7208C24.57 26.5408 25.68 26.2608 26.76 25.9008C27.53 25.6408 28.12 25.0608 28.4 24.3208C28.68 23.5708 28.6 22.7508 28.19 22.0608ZM20.75 18.0008C20.75 18.4208 20.41 18.7608 19.99 18.7608C19.57 18.7608 19.23 18.4208 19.23 18.0008V14.9008C19.23 14.4808 19.57 14.1408 19.99 14.1408C20.41 14.1408 20.75 14.4808 20.75 14.9008V18.0008Z" fill="url(#paint0_linear_1677_21515)"/>
<path d="M22.83 28.01C22.41 29.17 21.3 30 20 30C19.21 30 18.43 29.68 17.88 29.11C17.56 28.81 17.32 28.41 17.18 28C17.31 28.02 17.44 28.03 17.58 28.05C17.81 28.08 18.05 28.11 18.29 28.13C18.86 28.18 19.44 28.21 20.02 28.21C20.59 28.21 21.16 28.18 21.72 28.13C21.93 28.11 22.14 28.1 22.34 28.07C22.5 28.05 22.66 28.03 22.83 28.01Z" fill="url(#paint1_linear_1677_21515)"/>
<defs>
<linearGradient id="paint0_linear_1677_21515" x1="20.0027" y1="10.0508" x2="20.0027" y2="27.0008" gradientUnits="userSpaceOnUse">
<stop stop-color="#FFC675"/>
<stop offset="1" stop-color="#D47D01"/>
</linearGradient>
<linearGradient id="paint1_linear_1677_21515" x1="20.005" y1="28" x2="20.005" y2="30" gradientUnits="userSpaceOnUse">
<stop stop-color="#FFC675"/>
<stop offset="1" stop-color="#D47D01"/>
</linearGradient>
</defs>
</svg>
