<svg width="16" height="17" viewBox="0 0 16 17" fill="none" xmlns="http://www.w3.org/2000/svg">
<path d="M2.86191 3.36063C2.98693 3.2356 3.1565 3.16536 3.33331 3.16536H10.6666C11.0348 3.16536 11.3333 2.86689 11.3333 2.4987C11.3333 2.13051 11.0348 1.83203 10.6666 1.83203H3.33331C2.80288 1.83203 2.29417 2.04274 1.9191 2.41782C1.54403 2.79289 1.33331 3.3016 1.33331 3.83203V13.1654C1.33331 13.6958 1.54403 14.2045 1.9191 14.5796C2.29417 14.9547 2.80288 15.1654 3.33331 15.1654H12.6666C13.1971 15.1654 13.7058 14.9547 14.0809 14.5796C14.4559 14.2045 14.6666 13.6958 14.6666 13.1654V8.4987C14.6666 8.13051 14.3682 7.83203 14 7.83203C13.6318 7.83203 13.3333 8.13051 13.3333 8.4987V13.1654C13.3333 13.3422 13.2631 13.5117 13.1381 13.6368C13.013 13.7618 12.8435 13.832 12.6666 13.832H3.33331C3.1565 13.832 2.98693 13.7618 2.86191 13.6368C2.73688 13.5117 2.66665 13.3422 2.66665 13.1654V3.83203C2.66665 3.65522 2.73688 3.48565 2.86191 3.36063Z" fill="currentColor"/>
<path d="M8.47138 10.3034L15.1381 3.63677C15.3984 3.37642 15.3984 2.95431 15.1381 2.69396C14.8777 2.43361 14.4556 2.43361 14.1952 2.69396L7.99998 8.88922L6.47138 7.36063C6.21103 7.10028 5.78892 7.10028 5.52858 7.36063C5.26823 7.62098 5.26823 8.04309 5.52858 8.30344L7.52858 10.3034C7.78892 10.5638 8.21103 10.5638 8.47138 10.3034Z" fill="currentColor"/>
</svg>
