<svg width="80" height="80" viewBox="0 0 80 80" fill="none" xmlns="http://www.w3.org/2000/svg">
<path d="M33.3333 36.668C31.4924 36.668 30 38.1604 30 40.0013C30 41.8423 31.4924 43.3346 33.3333 43.3346H46.6667C48.5076 43.3346 50 41.8423 50 40.0013C50 38.1604 48.5076 36.668 46.6667 36.668H33.3333Z" fill="#DDE2E7"/>
<path fill-rule="evenodd" clip-rule="evenodd" d="M0 10.0013C0 8.16035 1.49238 6.66797 3.33333 6.66797H76.6667C78.5076 6.66797 80 8.16035 80 10.0013V26.668C80 28.5089 78.5076 30.0013 76.6667 30.0013H73.3333V70.0013C73.3333 71.8423 71.8409 73.3346 70 73.3346H10C8.15905 73.3346 6.66667 71.8423 6.66667 70.0013V30.0013H3.33333C1.49238 30.0013 0 28.5089 0 26.668V10.0013ZM66.6667 66.668V30.0013H13.3333V66.668H66.6667ZM73.3333 23.3346H6.66667V13.3346H73.3333V23.3346Z" fill="#DDE2E7"/>
</svg>
