<svg width="80" height="80" viewBox="0 0 80 80" fill="none" xmlns="http://www.w3.org/2000/svg">
<path fill-rule="evenodd" clip-rule="evenodd" d="M40.0001 3.33203C33.8117 3.33203 27.8768 5.79036 23.5009 10.1662C19.1251 14.5421 16.6668 20.477 16.6668 26.6654C16.6668 37.8409 14.2765 44.7808 12.0738 48.8192C10.9678 50.8468 9.89085 52.177 9.14275 52.9666C8.76784 53.3624 8.47322 53.6248 8.29584 53.7726C8.2071 53.8465 8.14759 53.8919 8.12192 53.911L8.1124 53.9181C6.91745 54.7389 6.38865 56.2404 6.80979 57.6313C7.23545 59.0372 8.53121 59.9987 10.0001 59.9987H70.0001C71.469 59.9987 72.7647 59.0372 73.1904 57.6313C73.6115 56.2404 73.0827 54.7389 71.8878 53.918L71.8783 53.911C71.8526 53.8919 71.7931 53.8465 71.7044 53.7726C71.527 53.6248 71.2324 53.3624 70.8574 52.9666C70.1093 52.177 69.0324 50.8468 67.9264 48.8192C65.7237 44.7808 63.3334 37.8409 63.3334 26.6654C63.3334 20.477 60.8751 14.5421 56.4993 10.1662C52.1234 5.79036 46.1885 3.33203 40.0001 3.33203ZM62.0738 52.0115C62.3274 52.4766 62.5821 52.9164 62.8357 53.332H17.1645C17.4181 52.9164 17.6728 52.4766 17.9264 52.0115C20.7237 46.8833 23.3334 38.8232 23.3334 26.6654C23.3334 22.2451 25.0894 18.0059 28.215 14.8803C31.3406 11.7546 35.5798 9.9987 40.0001 9.9987C44.4204 9.9987 48.6596 11.7546 51.7852 14.8803C54.9108 18.0059 56.6668 22.2451 56.6668 26.6654C56.6668 38.8232 59.2765 46.8833 62.0738 52.0115Z" fill="#DDE2E7"/>
<path d="M37.1168 68.3261C36.1931 66.7337 34.1533 66.1916 32.5609 67.1154C30.9685 68.0391 30.4264 70.0788 31.3502 71.6713C32.2292 73.1867 33.4909 74.4445 35.009 75.3189C36.5271 76.1933 38.2483 76.6535 40.0002 76.6535C41.7521 76.6535 43.4732 76.1933 44.9913 75.3189C46.5094 74.4445 47.7711 73.1867 48.6502 71.6713C49.5739 70.0788 49.0318 68.0391 47.4394 67.1154C45.847 66.1916 43.8072 66.7337 42.8835 68.3261C42.5905 68.8313 42.1699 69.2505 41.6639 69.542C41.1578 69.8335 40.5841 69.9869 40.0002 69.9869C39.4162 69.9869 38.8425 69.8335 38.3365 69.542C37.8304 69.2505 37.4098 68.8313 37.1168 68.3261Z" fill="#DDE2E7"/>
</svg>
