<svg width="16" height="16" viewBox="0 0 16 16" fill="none" xmlns="http://www.w3.org/2000/svg">
<path d="M11.2244 2.17202C9.95947 1.47274 8.50152 1.2035 7.07024 1.40487C5.64338 1.60562 4.32009 2.26324 3.29848 3.27904L1.33333 5.09302V2.66695C1.33333 2.29876 1.03486 2.00028 0.666667 2.00028C0.298477 2.00028 0 2.29876 0 2.66695V6.66695C0 7.03514 0.298477 7.33362 0.666667 7.33362H4.66667C5.03486 7.33362 5.33333 7.03514 5.33333 6.66695C5.33333 6.29876 5.03486 6.00029 4.66667 6.00029H2.31622L4.21219 4.25016C4.21858 4.24426 4.22485 4.23824 4.23101 4.2321C5.04933 3.41516 6.11098 2.8863 7.256 2.7252C8.40102 2.5641 9.56739 2.77949 10.5794 3.33892C11.5913 3.89834 12.3941 4.7715 12.8666 5.82682C13.3392 6.88214 13.456 8.06246 13.1994 9.18994C12.9429 10.3174 12.3268 11.331 11.4441 12.0779C10.5614 12.8248 9.4599 13.2646 8.30551 13.331C7.15112 13.3975 6.0064 13.087 5.04384 12.4462C4.08128 11.8055 3.35302 10.8694 2.96879 9.77876C2.84644 9.43149 2.46574 9.24916 2.11847 9.37151C1.77121 9.49386 1.58887 9.87456 1.71122 10.2218C2.19151 11.5851 3.10184 12.7553 4.30504 13.5562C5.50824 14.3571 6.93913 14.7452 8.38212 14.6622C9.82511 14.5791 11.202 14.0294 12.3054 13.0957C13.4088 12.1621 14.1788 10.8951 14.4995 9.48579C14.8202 8.07645 14.6742 6.60105 14.0835 5.2819C13.4928 3.96274 12.4894 2.8713 11.2244 2.17202Z" fill="#8A94A0"/>
</svg>
