<svg width="16" height="17" viewBox="0 0 16 17" fill="currentColor" xmlns="http://www.w3.org/2000/svg">
<path fill-rule="evenodd" clip-rule="evenodd" d="M3.33331 3.16536C2.96512 3.16536 2.66665 3.46384 2.66665 3.83203V13.1654C2.66665 13.5336 2.96512 13.832 3.33331 13.832H12.6666C13.0348 13.832 13.3333 13.5336 13.3333 13.1654V3.83203C13.3333 3.46384 13.0348 3.16536 12.6666 3.16536H3.33331ZM1.33331 3.83203C1.33331 2.72746 2.22874 1.83203 3.33331 1.83203H12.6666C13.7712 1.83203 14.6666 2.72746 14.6666 3.83203V13.1654C14.6666 14.2699 13.7712 15.1654 12.6666 15.1654H3.33331C2.22874 15.1654 1.33331 14.2699 1.33331 13.1654V3.83203Z" fill="currentColor"/>
</svg>
