<svg width="363" height="129" viewBox="0 0 363 129" fill="none" xmlns="http://www.w3.org/2000/svg">
<path d="M53.7 4.8C56.2333 3.99999 59.1 3.33333 62.3 2.8C65.6333 2.26667 68.6333 2 71.3 2C74.3667 2 77.3 2.33333 80.1 3C83.0333 3.53333 85.6333 4.53333 87.9 5.99999C90.1667 7.33333 91.9667 9.19999 93.3 11.6C94.6333 14 95.3 17 95.3 20.6V73.8H113.1C113.9 75.2667 114.7 77.2 115.5 79.6C116.3 82 116.7 84.5333 116.7 87.2C116.7 92.2667 115.567 95.8667 113.3 98C111.033 100.133 108.167 101.2 104.7 101.2H95.3V124.8C93.8333 125.067 91.6333 125.4 88.7 125.8C85.7667 126.333 82.9667 126.6 80.3 126.6C77.3667 126.6 74.7667 126.467 72.5 126.2C70.2333 125.933 68.3 125.333 66.7 124.4C65.2333 123.333 64.1 121.867 63.3 120C62.5 118.133 62.1 115.6 62.1 112.4V101.2H11.9C8.83333 99.6 6.16667 97.2667 3.9 94.2C1.76667 91 0.7 87.1333 0.7 82.6C0.7 80.0667 1.03333 77.2667 1.7 74.2C2.36667 71.1333 3.5 68.4667 5.1 66.2L53.7 4.8ZM63.9 36.2H63.3L36.7 73.8H63.9V36.2ZM299.208 4.8C301.741 3.99999 304.608 3.33333 307.808 2.8C311.141 2.26667 314.141 2 316.808 2C319.874 2 322.808 2.33333 325.608 3C328.541 3.53333 331.141 4.53333 333.408 5.99999C335.674 7.33333 337.474 9.19999 338.808 11.6C340.141 14 340.808 17 340.808 20.6V73.8H358.608C359.408 75.2667 360.208 77.2 361.008 79.6C361.808 82 362.208 84.5333 362.208 87.2C362.208 92.2667 361.074 95.8667 358.808 98C356.541 100.133 353.674 101.2 350.208 101.2H340.808V124.8C339.341 125.067 337.141 125.4 334.208 125.8C331.274 126.333 328.474 126.6 325.808 126.6C322.874 126.6 320.274 126.467 318.008 126.2C315.741 125.933 313.808 125.333 312.208 124.4C310.741 123.333 309.608 121.867 308.808 120C308.008 118.133 307.608 115.6 307.608 112.4V101.2H257.408C254.341 99.6 251.674 97.2667 249.408 94.2C247.274 91 246.208 87.1333 246.208 82.6C246.208 80.0667 246.541 77.2667 247.208 74.2C247.874 71.1333 249.008 68.4667 250.608 66.2L299.208 4.8ZM309.408 36.2H308.808L282.208 73.8H309.408V36.2Z" fill="#747FD2"/>
<path d="M199.742 64.2C199.742 52.4667 198.009 43.4 194.542 37C191.209 30.6 186.409 27.4 180.142 27.4C173.876 27.4 169.076 30.6 165.742 37C162.542 43.4 160.942 52.4667 160.942 64.2C160.942 75.9333 162.542 85.0667 165.742 91.6C169.076 98 173.876 101.2 180.142 101.2C186.409 101.2 191.209 98 194.542 91.6C198.009 85.0667 199.742 75.9333 199.742 64.2ZM233.942 64.2C233.942 74.4667 232.609 83.6 229.942 91.6C227.276 99.6 223.542 106.333 218.742 111.8C214.076 117.133 208.409 121.2 201.742 124C195.209 126.8 188.076 128.2 180.342 128.2C172.476 128.2 165.209 126.8 158.542 124C152.009 121.2 146.342 117.133 141.542 111.8C136.876 106.333 133.209 99.6 130.542 91.6C128.009 83.6 126.742 74.4667 126.742 64.2C126.742 53.9333 128.009 44.8667 130.542 37C133.209 29 136.876 22.3333 141.542 17C146.342 11.5333 152.009 7.39999 158.542 4.59999C165.209 1.79999 172.476 0.399995 180.342 0.399995C188.076 0.399995 195.209 1.79999 201.742 4.59999C208.409 7.39999 214.076 11.5333 218.742 17C223.542 22.3333 227.276 29 229.942 37C232.609 44.8667 233.942 53.9333 233.942 64.2Z" fill="#DAE1F4"/>
</svg>
