<svg width="40" height="40" viewBox="0 0 40 40" fill="none" xmlns="http://www.w3.org/2000/svg">
<path fill-rule="evenodd" clip-rule="evenodd" d="M17.5219 8.93768C14.4895 5.90532 9.57307 5.90532 6.54071 8.93768C3.50835 11.97 3.50835 16.8865 6.54071 19.9188L7.84022 21.2183C7.86146 21.2396 7.88207 21.2613 7.90203 21.2836L19.9999 33.3814L32.0972 21.2841C32.1173 21.2618 32.138 21.2398 32.1595 21.2183L33.459 19.9188C36.4914 16.8865 36.4914 11.97 33.459 8.93768C30.4267 5.90532 25.5103 5.90532 22.4779 8.93768L21.1784 10.2372C20.5275 10.8881 19.4722 10.8881 18.8214 10.2372L17.5219 8.93768ZM34.5806 23.5113C34.5605 23.5337 34.5398 23.5556 34.5183 23.5771L21.1801 36.9152C20.8674 37.2279 20.4434 37.4035 20.0012 37.4034C20.0008 37.4034 20.0016 37.4034 20.0012 37.4034C20.0008 37.4034 19.999 37.4034 19.9985 37.4034C19.5564 37.4035 19.1323 37.2279 18.8197 36.9152L5.48148 23.5771C5.45999 23.5556 5.4392 23.5336 5.41913 23.5113L4.18369 22.2759C-0.150418 17.9417 -0.150424 10.9148 4.18368 6.58066C8.51779 2.24655 15.5448 2.24655 19.8789 6.58066L19.9999 6.70166L20.1209 6.58066C24.455 2.24655 31.482 2.24655 35.8161 6.58066C40.1502 10.9148 40.1502 17.9417 35.8161 22.2759L34.5806 23.5113Z" fill="#C2D3FF"/>
</svg>
