<svg width="17" height="16" viewBox="0 0 17 16" fill="none" xmlns="http://www.w3.org/2000/svg">
<path fill-rule="evenodd" clip-rule="evenodd" d="M8.5 1.33398C6.65905 1.33398 5.16667 2.82637 5.16667 4.66732C5.16667 6.50827 6.65905 8.00065 8.5 8.00065C10.3409 8.00065 11.8333 6.50827 11.8333 4.66732C11.8333 2.82637 10.3409 1.33398 8.5 1.33398ZM6.5 4.66732C6.5 3.56275 7.39543 2.66732 8.5 2.66732C9.60457 2.66732 10.5 3.56275 10.5 4.66732C10.5 5.77189 9.60457 6.66732 8.5 6.66732C7.39543 6.66732 6.5 5.77189 6.5 4.66732Z" fill="#A6AEB6"/>
<path d="M5.83333 9.33398C4.94928 9.33398 4.10143 9.68517 3.47631 10.3103C2.85119 10.9354 2.5 11.7833 2.5 12.6673V14.0007C2.5 14.3688 2.79848 14.6673 3.16667 14.6673C3.53486 14.6673 3.83333 14.3688 3.83333 14.0007V12.6673C3.83333 12.1369 4.04405 11.6282 4.41912 11.2531C4.79419 10.878 5.3029 10.6673 5.83333 10.6673H11.1667C11.6971 10.6673 12.2058 10.878 12.5809 11.2531C12.956 11.6282 13.1667 12.1369 13.1667 12.6673V14.0007C13.1667 14.3688 13.4651 14.6673 13.8333 14.6673C14.2015 14.6673 14.5 14.3688 14.5 14.0007V12.6673C14.5 11.7833 14.1488 10.9354 13.5237 10.3103C12.8986 9.68517 12.0507 9.33398 11.1667 9.33398H5.83333Z" fill="#A6AEB6"/>
</svg>
