<svg width="40" height="40" viewBox="0 0 40 40" fill="none" xmlns="http://www.w3.org/2000/svg">
<path fill-rule="evenodd" clip-rule="evenodd" d="M20.8413 6.66732C13.9422 6.66732 8.34941 12.2601 8.34941 19.1592C8.34941 21.1561 8.81672 23.0391 9.64643 24.7091C9.84245 25.1036 9.87428 25.5597 9.73496 25.9777L7.62021 32.3218L14.0284 30.2555C14.4427 30.1219 14.8929 30.1557 15.2826 30.3497C16.9548 31.1822 18.8409 31.6512 20.8413 31.6512C27.7404 31.6512 33.3333 26.0583 33.3333 19.1592C33.3333 12.2601 27.7404 6.66732 20.8413 6.66732ZM5.01608 19.1592C5.01608 10.4192 12.1013 3.33398 20.8413 3.33398C29.5814 3.33398 36.6666 10.4192 36.6666 19.1592C36.6666 27.8993 29.5814 34.9845 20.8413 34.9845C18.5604 34.9845 16.3885 34.5009 14.4259 33.6296L5.50925 36.5048C4.91123 36.6976 4.25559 36.5377 3.81347 36.0913C3.37136 35.6448 3.21793 34.9876 3.41663 34.3915L6.36221 25.555C5.4964 23.5975 5.01608 21.4325 5.01608 19.1592Z" fill="#19398C"/>
</svg>
