<svg width="41" height="40" viewBox="0 0 41 40" fill="none" xmlns="http://www.w3.org/2000/svg">
<path fill-rule="evenodd" clip-rule="evenodd" d="M32.1665 1.95312C31.3286 1.95312 30.4989 2.11817 29.7247 2.43883C28.9506 2.75949 28.2472 3.22949 27.6547 3.82199L5.1547 26.322C4.9496 26.5271 4.80158 26.7822 4.72527 27.062L2.22527 36.2286C2.0679 36.8057 2.23178 37.4228 2.6547 37.8457C3.07761 38.2686 3.69472 38.4325 4.27174 38.2751L13.4384 35.7751C13.7182 35.6988 13.9733 35.5508 14.1784 35.3457L36.6784 12.8457C37.2709 12.2532 37.7409 11.5498 38.0616 10.7756C38.3822 10.0015 38.5473 9.17176 38.5473 8.33384C38.5473 7.49591 38.3822 6.66619 38.0616 5.89204C37.7409 5.1179 37.2709 4.41449 36.6784 3.82199C36.0859 3.22949 35.3825 2.75949 34.6083 2.43883C33.8342 2.11817 33.0045 1.95312 32.1665 1.95312ZM31.0004 5.51843C31.3701 5.36528 31.7664 5.28646 32.1665 5.28646C32.5667 5.28646 32.963 5.36528 33.3327 5.51843C33.7024 5.67157 34.0384 5.89604 34.3214 6.17901C34.6043 6.46199 34.8288 6.79793 34.982 7.16766C35.1351 7.53738 35.2139 7.93364 35.2139 8.33384C35.2139 8.73403 35.1351 9.1303 34.982 9.50002C34.8288 9.86974 34.6043 10.2057 34.3214 10.4887L12.1343 32.6757L6.20857 34.2918L7.82469 28.366L30.0117 6.17901C30.2947 5.89604 30.6306 5.67157 31.0004 5.51843Z" fill="white"/>
</svg>
