<svg width="40" height="40" viewBox="0 0 40 40" fill="none" xmlns="http://www.w3.org/2000/svg">
<path fill-rule="evenodd" clip-rule="evenodd" d="M31.6665 1.95312C30.8286 1.95312 29.9989 2.11817 29.2247 2.43883C28.4506 2.75949 27.7472 3.22949 27.1547 3.82199L4.6547 26.322C4.4496 26.5271 4.30158 26.7822 4.22527 27.062L1.72527 36.2286C1.5679 36.8057 1.73178 37.4228 2.1547 37.8457C2.57761 38.2686 3.19472 38.4325 3.77174 38.2751L12.9384 35.7751C13.2182 35.6988 13.4733 35.5508 13.6784 35.3457L36.1784 12.8457C36.7709 12.2532 37.2409 11.5498 37.5616 10.7756C37.8822 10.0015 38.0473 9.17176 38.0473 8.33384C38.0473 7.49591 37.8822 6.66619 37.5616 5.89204C37.2409 5.1179 36.7709 4.41449 36.1784 3.82199C35.5859 3.22949 34.8825 2.75949 34.1083 2.43883C33.3342 2.11817 32.5045 1.95312 31.6665 1.95312ZM30.5004 5.51843C30.8701 5.36528 31.2664 5.28646 31.6665 5.28646C32.0667 5.28646 32.463 5.36528 32.8327 5.51843C33.2024 5.67157 33.5384 5.89604 33.8214 6.17901C34.1043 6.46199 34.3288 6.79793 34.482 7.16766C34.6351 7.53738 34.7139 7.93364 34.7139 8.33384C34.7139 8.73403 34.6351 9.1303 34.482 9.50002C34.3288 9.86974 34.1043 10.2057 33.8214 10.4887L11.6343 32.6757L5.70857 34.2918L7.32469 28.366L29.5117 6.17901C29.7947 5.89604 30.1306 5.67157 30.5004 5.51843Z" fill="#19398C"/>
</svg>
