<svg width="41" height="40" viewBox="0 0 41 40" fill="none" xmlns="http://www.w3.org/2000/svg">
<path fill-rule="evenodd" clip-rule="evenodd" d="M32.1665 1.95264C31.3286 1.95264 30.4989 2.11768 29.7247 2.43834C28.9506 2.759 28.2472 3.229 27.6547 3.8215L5.1547 26.3215C4.9496 26.5266 4.80159 26.7817 4.72527 27.0615L2.22527 36.2282C2.0679 36.8052 2.23178 37.4223 2.6547 37.8452C3.07761 38.2681 3.69472 38.432 4.27174 38.2746L13.4384 35.7746C13.7182 35.6983 13.9733 35.5503 14.1784 35.3452L36.6784 12.8452C37.2709 12.2527 37.7409 11.5493 38.0616 10.7751C38.3822 10.001 38.5473 9.17127 38.5473 8.33335C38.5473 7.49543 38.3822 6.6657 38.0616 5.89156C37.7409 5.11741 37.2709 4.41401 36.6784 3.8215C36.0859 3.229 35.3825 2.759 34.6083 2.43834C33.8342 2.11768 33.0045 1.95264 32.1665 1.95264ZM31.0004 5.51794C31.3701 5.36479 31.7664 5.28597 32.1665 5.28597C32.5667 5.28597 32.963 5.36479 33.3327 5.51794C33.7024 5.67108 34.0384 5.89555 34.3214 6.17853C34.6043 6.4615 34.8288 6.79744 34.982 7.16717C35.1351 7.53689 35.2139 7.93316 35.2139 8.33335C35.2139 8.73354 35.1351 9.12981 34.982 9.49953C34.8288 9.86925 34.6043 10.2052 34.3214 10.4882L12.1343 32.6752L6.20857 34.2913L7.82469 28.3656L30.0117 6.17853C30.2947 5.89555 30.6306 5.67108 31.0004 5.51794Z" fill="#C6CCD1"/>
</svg>
