<svg width="14" height="14" viewBox="0 0 14 14" fill="none" xmlns="http://www.w3.org/2000/svg">
<path fill-rule="evenodd" clip-rule="evenodd" d="M2.33203 0.332031C1.8016 0.332031 1.29289 0.542745 0.917818 0.917818C0.542745 1.29289 0.332031 1.8016 0.332031 2.33203V12.9987C0.332031 13.2683 0.494459 13.5114 0.743576 13.6146C0.992692 13.7178 1.27944 13.6608 1.4701 13.4701L3.94151 10.9987H11.6654C12.1958 10.9987 12.7045 10.788 13.0796 10.4129C13.4547 10.0378 13.6654 9.52913 13.6654 8.9987V2.33203C13.6654 1.8016 13.4547 1.29289 13.0796 0.917818C12.7045 0.542745 12.1958 0.332031 11.6654 0.332031H2.33203ZM1.86063 1.86063C1.98565 1.7356 2.15522 1.66536 2.33203 1.66536H11.6654C11.8422 1.66536 12.0117 1.7356 12.1368 1.86063C12.2618 1.98565 12.332 2.15522 12.332 2.33203V8.9987C12.332 9.17551 12.2618 9.34508 12.1368 9.4701C12.0117 9.59513 11.8422 9.66537 11.6654 9.66537H3.66536C3.48855 9.66537 3.31898 9.7356 3.19396 9.86063L1.66536 11.3892V2.33203C1.66536 2.15522 1.7356 1.98565 1.86063 1.86063Z" fill="#6C7582"/>
</svg>
