<svg width="24" height="24" viewBox="0 0 24 24" fill="none" xmlns="http://www.w3.org/2000/svg">
<path d="M12.0723 3.94637C14.6727 1.34598 18.8888 1.34602 21.4893 3.94637C24.0897 6.54682 24.0897 10.7629 21.4893 13.3634L20.7481 14.1046C20.736 14.118 20.7239 14.1317 20.711 14.1446L12.708 22.1475C12.5204 22.3351 12.2653 22.4406 12 22.4405H11.999C11.7339 22.4406 11.4796 22.3349 11.292 22.1475L3.28909 14.1446C3.27619 14.1317 3.26305 14.118 3.251 14.1046L2.50979 13.3634C-0.0904548 10.7629 -0.0905518 6.54677 2.50979 3.94637C5.11019 1.34597 9.3263 1.3461 11.9268 3.94637L12 4.01864L12.0723 3.94637Z" fill="#19398C"/>
</svg>
