<svg width="20" height="20" viewBox="0 0 20 20" fill="none" xmlns="http://www.w3.org/2000/svg">
<path fill-rule="evenodd" clip-rule="evenodd" d="M10 1C8.5148 1 7.09043 1.6035 6.04023 2.67775C4.99004 3.75199 4.40004 5.20898 4.40004 6.7282C4.40004 9.47172 3.82639 11.1754 3.29774 12.1668C3.0323 12.6646 2.77384 12.9911 2.5943 13.185C2.50432 13.2822 2.43361 13.3466 2.39104 13.3829C2.36974 13.401 2.35546 13.4122 2.3493 13.4168L2.34701 13.4186C2.06023 13.6201 1.93332 13.9887 2.03439 14.3302C2.13655 14.6753 2.44752 14.9113 2.80006 14.9113H17.1999C17.5525 14.9113 17.8635 14.6753 17.9656 14.3302C18.0667 13.9887 17.9398 13.6201 17.653 13.4186L17.6507 13.4168C17.6445 13.4122 17.6303 13.401 17.609 13.3829C17.5664 13.3466 17.4957 13.2822 17.4057 13.185C17.2262 12.9911 16.9677 12.6646 16.7023 12.1668C16.1736 11.1754 15.6 9.47172 15.6 6.7282C15.6 5.20898 15.01 3.75199 13.9598 2.67775C12.9096 1.6035 11.4852 1 10 1ZM15.2976 12.9505C15.3585 13.0647 15.4196 13.1727 15.4805 13.2747H4.5195C4.58037 13.1727 4.64148 13.0647 4.70236 12.9505C5.37369 11.6916 6.00003 9.71286 6.00003 6.7282C6.00003 5.64304 6.42145 4.60234 7.17159 3.83502C7.92173 3.0677 8.93914 2.63663 10 2.63663C11.0609 2.63663 12.0783 3.0677 12.8284 3.83502C13.5785 4.60234 14 5.64304 14 6.7282C14 9.71286 14.6263 11.6916 15.2976 12.9505Z" fill="#19398C"/>
<path d="M9.30802 16.9557C9.08633 16.5647 8.59679 16.4317 8.21461 16.6584C7.83243 16.8852 7.70234 17.386 7.92403 17.7769C8.135 18.1489 8.43782 18.4577 8.80215 18.6724C9.16649 18.887 9.57956 19 10 19C10.4205 19 10.8335 18.887 11.1979 18.6724C11.5622 18.4577 11.865 18.1489 12.076 17.7769C12.2977 17.386 12.1676 16.8852 11.7854 16.6584C11.4032 16.4317 10.9137 16.5647 10.692 16.9557C10.6217 17.0797 10.5207 17.1826 10.3993 17.2542C10.2779 17.3257 10.1402 17.3634 10 17.3634C9.85986 17.3634 9.72217 17.3257 9.60073 17.2542C9.47928 17.1826 9.37835 17.0797 9.30802 16.9557Z" fill="#19398C"/>
</svg>
