<svg width="20" height="20" viewBox="0 0 20 20" fill="none" xmlns="http://www.w3.org/2000/svg">
<path fill-rule="evenodd" clip-rule="evenodd" d="M2.28033 1.21967C1.98744 0.926777 1.51256 0.926777 1.21967 1.21967C0.926777 1.51256 0.926777 1.98744 1.21967 2.28033L5.18524 6.2459L4.75006 7.00081C4.74994 9.51483 4.2122 11.0761 3.71664 11.9846C3.46779 12.4408 3.22548 12.7401 3.05716 12.9178C2.9728 13.0068 2.90651 13.0659 2.8666 13.0991C2.84663 13.1158 2.83324 13.126 2.82747 13.1303L2.82532 13.1319C2.55646 13.3165 2.43748 13.6544 2.53224 13.9673C2.62801 14.2837 2.91956 14.5 3.25006 14.5H13.4393L17.7197 18.7803C18.0126 19.0732 18.4874 19.0732 18.7803 18.7803C19.0732 18.4874 19.0732 18.0126 18.7803 17.7197L14.2861 13.2254C14.2823 13.2216 14.2785 13.2177 14.2746 13.214L6.23695 5.17629C6.22912 5.16809 6.22109 5.16006 6.21286 5.1522L2.28033 1.21967ZM6.24754 7.3082C6.20532 9.87253 5.63892 11.5929 5.03348 12.7029C4.97641 12.8075 4.91912 12.9065 4.86205 13H11.9393L6.24754 7.3082Z" fill="#C6CCD1"/>
<path d="M12.4799 2.36592C11.6416 1.91668 10.697 1.70359 9.74706 1.74942C8.79709 1.79524 7.87742 2.09826 7.08627 2.62611C6.74171 2.856 6.64874 3.32168 6.87863 3.66625C7.10852 4.01081 7.57421 4.10377 7.91877 3.87388C8.48388 3.49685 9.14079 3.28041 9.81933 3.24767C10.4979 3.21494 11.1726 3.36715 11.7713 3.68803C12.3701 4.00892 12.8705 4.48643 13.219 5.06956C13.5671 5.65208 13.7506 6.31812 13.75 6.99671C13.7295 8.3306 13.8975 9.66071 14.2491 10.9476C14.3582 11.3472 14.7706 11.5826 15.1702 11.4735C15.5698 11.3643 15.8052 10.9519 15.6961 10.5524C15.3811 9.3992 15.2309 8.20725 15.25 7.01198L12.4799 2.36592Z" fill="#C6CCD1"/>
<path d="M12.4799 2.36592C13.3182 2.81516 14.0187 3.48368 14.5066 4.30006C14.9929 5.11379 15.2498 6.04396 15.25 6.99181L12.4799 2.36592Z" fill="#C6CCD1"/>
<path d="M9.3512 16.3737C9.14336 16.0154 8.68442 15.8934 8.32613 16.1012C7.96783 16.3091 7.84586 16.768 8.05371 17.1263C8.25149 17.4673 8.53538 17.7503 8.87695 17.947C9.21852 18.1438 9.60578 18.2473 9.99996 18.2473C10.3941 18.2473 10.7814 18.1438 11.123 17.947C11.4645 17.7503 11.7484 17.4673 11.9462 17.1263C12.154 16.768 12.0321 16.3091 11.6738 16.1012C11.3155 15.8934 10.8565 16.0154 10.6487 16.3737C10.5828 16.4873 10.4881 16.5817 10.3743 16.6472C10.2604 16.7128 10.1313 16.7473 9.99996 16.7473C9.86856 16.7473 9.73948 16.7128 9.62562 16.6472C9.51176 16.5817 9.41713 16.4873 9.3512 16.3737Z" fill="#C6CCD1"/>
</svg>
