<svg width="16" height="16" viewBox="0 0 16 16" fill="none" xmlns="http://www.w3.org/2000/svg">
<g clip-path="url(#clip0_1910_14942)">
<path fill-rule="evenodd" clip-rule="evenodd" d="M12.6641 0.78125C12.3289 0.78125 11.997 0.847267 11.6874 0.975531C11.3777 1.1038 11.0963 1.2918 10.8593 1.5288L1.85934 10.5288C1.7773 10.6108 1.7181 10.7129 1.68757 10.8248L0.687569 14.4915C0.624621 14.7223 0.690173 14.9691 0.85934 15.1383C1.02851 15.3074 1.27535 15.373 1.50616 15.31L5.17282 14.31C5.28475 14.2795 5.38678 14.2203 5.46882 14.1383L14.4688 5.13827C14.7058 4.90127 14.8938 4.61991 15.0221 4.31025C15.1503 4.00059 15.2164 3.6687 15.2164 3.33353C15.2164 2.99837 15.1503 2.66648 15.0221 2.35682C14.8938 2.04716 14.7058 1.7658 14.4688 1.5288C14.2318 1.2918 13.9505 1.1038 13.6408 0.975531C13.3311 0.847267 12.9992 0.78125 12.6641 0.78125ZM12.1976 2.20737C12.3455 2.14611 12.504 2.11458 12.6641 2.11458C12.8242 2.11458 12.9827 2.14611 13.1306 2.20737C13.2784 2.26863 13.4128 2.35842 13.526 2.47161C13.6392 2.5848 13.729 2.71917 13.7902 2.86706C13.8515 3.01495 13.883 3.17346 13.883 3.33353C13.883 3.49361 13.8515 3.65212 13.7902 3.80001C13.729 3.9479 13.6392 4.08227 13.526 4.19546L4.65119 13.0703L2.28089 13.7167L2.92734 11.3464L11.8021 2.47161C11.9153 2.35842 12.0497 2.26863 12.1976 2.20737Z" fill="currentColor"/>
</g>
<defs>
<clipPath id="clip0_1910_14942">
<rect width="16" height="16" fill="white"/>
</clipPath>
</defs>
</svg>
