<svg width="20" height="20" viewBox="0 0 20 20" fill="none" xmlns="http://www.w3.org/2000/svg">
<path d="M10 0.833008C10.317 0.833172 10.6067 1.01356 10.7471 1.29785L13.1279 6.12207L18.4531 6.90039C18.7669 6.94626 19.0282 7.1661 19.126 7.46777C19.2237 7.76937 19.1412 8.10007 18.9141 8.32129L15.0615 12.0742L15.9707 17.375C16.0243 17.6875 15.8961 18.004 15.6396 18.1904C15.383 18.3769 15.0425 18.4015 14.7617 18.2539L10 15.75L5.2373 18.2539C4.95656 18.4015 4.61599 18.3768 4.35938 18.1904C4.10295 18.004 3.97472 17.6875 4.02832 17.375L4.9375 12.0742L1.08496 8.32129C0.85791 8.10008 0.775374 7.76934 0.873047 7.46777C0.970861 7.1661 1.2321 6.94626 1.5459 6.90039L6.87109 6.12207L9.25195 1.29785C9.39235 1.01343 9.68282 0.833008 10 0.833008Z" fill="#19398C"/>
</svg>
