<svg width="20" height="20" viewBox="0 0 20 20" fill="none" xmlns="http://www.w3.org/2000/svg">
<path fill-rule="evenodd" clip-rule="evenodd" d="M10.7499 1.29846C10.6095 1.01404 10.3198 0.833984 10.0026 0.833984C9.68545 0.833984 9.39577 1.01404 9.25537 1.29846L6.87408 6.12271L1.54877 6.90108C1.23497 6.94695 0.974405 7.16695 0.87659 7.46862C0.778775 7.7703 0.860669 8.10134 1.08785 8.32262L4.94053 12.0751L4.03129 17.3764C3.97766 17.6891 4.1062 18.0051 4.36285 18.1915C4.6195 18.378 4.95974 18.4025 5.2405 18.2549L10.0026 15.7505L14.7648 18.2549C15.0455 18.4025 15.3858 18.378 15.6424 18.1915C15.8991 18.0051 16.0276 17.6891 15.974 17.3764L15.0647 12.0751L18.9174 8.32262C19.1446 8.10134 19.2265 7.7703 19.1287 7.46862C19.0309 7.16695 18.7703 6.94695 18.4565 6.90108L13.1312 6.12271L10.7499 1.29846ZM8.17488 7.25284L10.0026 3.55003L11.8304 7.25284C11.9517 7.49854 12.186 7.66893 12.4571 7.70856L16.5456 8.30615L13.5879 11.187C13.3913 11.3785 13.3016 11.6544 13.348 11.9249L14.0458 15.9937L10.3905 14.0714C10.1477 13.9437 9.85757 13.9437 9.61475 14.0714L5.95945 15.9937L6.6573 11.9249C6.70369 11.6544 6.61397 11.3785 6.41741 11.187L3.45964 8.30615L7.54815 7.70856C7.81928 7.66893 8.0536 7.49854 8.17488 7.25284Z" fill="#C6CCD1"/>
</svg>
