<svg width="20" height="20" viewBox="0 0 20 20" fill="none" xmlns="http://www.w3.org/2000/svg">
<path fill-rule="evenodd" clip-rule="evenodd" d="M2.91667 5.83268C2.91667 3.5315 4.78215 1.66602 7.08333 1.66602C9.38452 1.66602 11.25 3.5315 11.25 5.83268C11.25 8.13387 9.38452 9.99935 7.08333 9.99935C4.78215 9.99935 2.91667 8.13387 2.91667 5.83268ZM7.08333 3.33268C5.70262 3.33268 4.58333 4.45197 4.58333 5.83268C4.58333 7.21339 5.70262 8.33268 7.08333 8.33268C8.46405 8.33268 9.58333 7.21339 9.58333 5.83268C9.58333 4.45197 8.46405 3.33268 7.08333 3.33268Z" fill="#A6AEB6"/>
<path d="M1.22039 12.8864C2.00179 12.105 3.0616 11.666 4.16667 11.666H10C11.1051 11.666 12.1649 12.105 12.9463 12.8864C13.7277 13.6678 14.1667 14.7276 14.1667 15.8327V17.4993C14.1667 17.9596 13.7936 18.3327 13.3333 18.3327C12.8731 18.3327 12.5 17.9596 12.5 17.4993V15.8327C12.5 15.1696 12.2366 14.5338 11.7678 14.0649C11.2989 13.5961 10.663 13.3327 10 13.3327H4.16667C3.50363 13.3327 2.86774 13.5961 2.3989 14.0649C1.93006 14.5338 1.66667 15.1696 1.66667 15.8327V17.4993C1.66667 17.9596 1.29357 18.3327 0.833333 18.3327C0.373096 18.3327 0 17.9596 0 17.4993V15.8327C0 14.7276 0.438987 13.6678 1.22039 12.8864Z" fill="#A6AEB6"/>
<path d="M19.7559 8.0886C20.0814 7.76317 20.0814 7.23553 19.7559 6.91009C19.4305 6.58466 18.9028 6.58466 18.5774 6.91009L15.8333 9.65417L14.7559 8.57676C14.4305 8.25132 13.9028 8.25132 13.5774 8.57676C13.252 8.9022 13.252 9.42983 13.5774 9.75527L15.2441 11.4219C15.5695 11.7474 16.0972 11.7474 16.4226 11.4219L19.7559 8.0886Z" fill="#A6AEB6"/>
</svg>
